<svg width="24" height="24" viewBox="0 0 24 24" fill="none" xmlns="http://www.w3.org/2000/svg">
<path d="M17.6448 20.24C17.7368 20.3952 17.9083 20.4944 18.0882 20.4944L21.2884 20.5C21.4711 20.5 21.5841 20.3015 21.492 20.1436L12.0196 3.65935C11.8955 3.44688 11.5887 3.44688 11.4646 3.65935L10.0004 6.29839C9.87211 6.51784 9.87211 6.79041 10.0004 7.00847L17.6434 20.2386L17.6448 20.24Z" fill="white"/>
<path d="M2.28493 20.4986L5.481 20.4888C5.62184 20.4888 5.75152 20.4133 5.82264 20.2917C7.5894 17.2907 8.47348 15.6818 10.2402 12.6807C10.3839 12.4375 10.3825 12.1356 10.2402 11.8938L8.75655 9.35677C8.63384 9.1499 8.33543 9.1513 8.21411 9.35817L2.03951 20.0695C1.92795 20.2596 2.06601 20.5 2.28633 20.4986" fill="white"/>
</svg>
