<svg width="32" height="32" viewBox="0 0 32 32" fill="none" xmlns="http://www.w3.org/2000/svg">
<path d="M25.3196 28.6552C25.4654 28.901 25.7372 29.0583 26.0222 29.0583L31.0924 29.0671C31.3818 29.0671 31.5607 28.7527 31.4149 28.5024L16.4076 2.38625C16.211 2.04964 15.7249 2.04964 15.5283 2.38625L13.2086 6.56732C13.0053 6.915 13.0053 7.34683 13.2086 7.6923L25.3174 28.653L25.3196 28.6552Z" fill="white"/>
<path d="M0.984868 29.0649L6.04844 29.0494C6.27157 29.0494 6.47704 28.9298 6.58971 28.7372C9.38881 23.9825 10.7895 21.4336 13.5886 16.6789C13.8161 16.2936 13.8139 15.8153 13.5886 15.4322L11.2379 11.4128C11.0435 11.085 10.5707 11.0872 10.3785 11.415L0.59604 28.3851C0.419301 28.6862 0.63802 29.0671 0.98708 29.0649" fill="white"/>
</svg>
