<svg width="24" height="24" viewBox="0 0 24 24" fill="none" xmlns="http://www.w3.org/2000/svg">
<path d="M12.9405 8.75638C13.2523 8.75638 13.5429 8.75638 13.8325 8.75638C14.1884 8.7573 14.5453 8.75177 14.9012 8.76375C16.1739 8.80613 17.3915 7.6231 17.1681 6.1563C17.0706 5.51596 16.7174 5.03593 16.207 4.66186C15.8199 4.37808 15.3794 4.2583 14.903 4.25922C13.4242 4.25922 11.9464 4.25922 10.4676 4.26106C10.3701 4.26106 10.3103 4.24079 10.2579 4.14866C9.85973 3.45027 9.45417 2.75648 9.05137 2.06086C9.04401 2.04796 9.04033 2.03414 9.0293 2.00834C9.07344 2.00558 9.11022 2.00189 9.14609 2.00189C11.1031 2.00189 13.0601 1.99821 15.017 2.00281C16.5363 2.0065 17.7143 2.68278 18.6045 3.88423C19.366 4.91154 19.5747 6.07799 19.3697 7.31998C19.194 8.38323 18.6395 9.24101 17.8477 9.9523C17.5175 10.249 17.1423 10.4775 16.734 10.6488C16.7174 10.6562 16.7009 10.6664 16.6733 10.6811C17.5929 12.2935 18.5098 13.9012 19.4377 15.5274C19.3825 15.5311 19.343 15.5367 19.3044 15.5367C18.5273 15.5367 17.7493 15.5357 16.9722 15.5394C16.8839 15.5394 16.837 15.5099 16.7928 15.4335C16.0084 14.0699 15.2212 12.7081 14.434 11.3454C13.9576 10.5199 13.4794 9.69524 13.0021 8.8697C12.9837 8.83746 12.9672 8.80429 12.9405 8.75546V8.75638Z" fill="white"/>
<path d="M4.36572 2.00187C4.85681 2.00187 5.32766 2.00187 5.79851 2.00187C6.06245 2.00187 6.3273 2.00464 6.59124 2.00003C6.66481 1.99911 6.70711 2.01938 6.74574 2.08664C7.41799 3.27151 8.09392 4.45453 8.76801 5.63848C9.43107 6.80216 10.0932 7.96675 10.7563 9.13043C11.3798 10.2241 12.0042 11.3177 12.6277 12.4114C13.2908 13.5751 13.9529 14.7397 14.616 15.9033C15.2376 16.9942 15.8602 18.0842 16.4819 19.1742C16.9997 20.0817 17.5165 20.9902 18.0333 21.8977C18.048 21.9235 18.06 21.9511 18.0793 21.9908C18.0315 21.9935 17.9956 21.9981 17.9598 21.9981C17.2627 21.9981 16.5656 21.9981 15.8685 22C15.7867 22 15.7407 21.976 15.6984 21.9014C15.0261 20.7165 14.3502 19.5335 13.6752 18.3496C12.8714 16.9399 12.0695 15.5293 11.2657 14.1196C10.599 12.9495 9.93043 11.7793 9.26369 10.6092C8.60616 9.45567 7.94954 8.30121 7.292 7.14674C6.66481 6.04572 6.0367 4.94562 5.40951 3.84551C5.08212 3.27058 4.75381 2.69566 4.42642 2.12073C4.40803 2.08848 4.39239 2.05439 4.36572 2.00187Z" fill="#FB3800"/>
<path d="M6.53806 19.9748C6.91695 19.9748 7.26457 19.9748 7.6122 19.9748C9.02567 19.973 10.4382 19.9712 11.8517 19.973C11.8959 19.973 11.9602 20.0006 11.9805 20.0357C12.3502 20.6576 12.7134 21.2832 13.0785 21.9069C13.0914 21.9291 13.1024 21.9539 13.1208 21.9908C13.0748 21.9935 13.039 21.9982 13.0031 21.9982C10.3224 21.9982 7.64162 21.9982 4.96089 22C4.87812 22 4.8303 21.976 4.78708 21.9042C4.53786 21.4914 4.28404 21.0814 4.0293 20.6714C3.99619 20.618 3.98884 20.5756 4.01918 20.5148C4.5912 19.3631 5.16045 18.2104 5.72878 17.0569C6.35046 15.7974 6.97029 14.537 7.59104 13.2775C7.66737 13.1236 7.74462 12.9698 7.83015 12.7965C7.95982 13.0186 8.08029 13.224 8.19984 13.4304C8.47205 13.9012 8.74427 14.3711 9.01188 14.8438C9.03303 14.8816 9.03579 14.9488 9.01648 14.9875C8.24582 16.54 7.47149 18.0907 6.69808 19.6422C6.6475 19.7436 6.59784 19.8459 6.53438 19.9739L6.53806 19.9748Z" fill="#F43902"/>
</svg>
