<svg width="24" height="24" viewBox="0 0 24 24" fill="none" xmlns="http://www.w3.org/2000/svg">
<path d="M21.9971 9.82206C22.0054 12.8354 21.9971 13.6311 21.9554 13.6615C21.9262 13.6789 20.5462 13.692 18.891 13.6876C16.4646 13.6789 15.8684 13.6876 15.8267 13.7311C15.785 13.7746 15.7766 14.2007 15.7891 15.8574C15.8016 17.5662 15.7933 17.9314 15.7474 17.9619C15.6724 18.0097 13.346 18.0141 13.3168 17.9662C13.2793 17.9054 13.2793 11.6396 13.3126 11.5005C13.3335 11.4265 13.3668 11.357 13.3918 11.3352C13.4502 11.2961 13.8254 11.2918 15.7099 11.3004C16.3186 11.3004 16.944 11.2961 17.1066 11.2874C17.265 11.2744 17.4068 11.2744 17.4235 11.2874C17.4527 11.3048 18.4283 11.3178 19.1412 11.3091L19.5039 11.3048V8.68283C19.5039 7.23923 19.5164 6.04348 19.5331 6.03044C19.5498 6.01304 20.1043 6.00435 20.7713 6.00869L21.9846 6.02174L21.9971 9.82206Z" fill="#f0f0f0"/>
<path d="M21.9637 16.0878C21.9929 16.14 22.0013 16.5009 21.9971 17.0748L21.9846 17.9793H20.7547H19.5248L19.5122 17.0488C19.5039 16.4009 19.5164 16.1009 19.5498 16.0617C19.5873 16.0139 19.8249 16.0008 20.7588 16.0008C21.872 16.0008 21.922 16.0052 21.9637 16.0878Z" fill="#f0f0f0"/>
<path d="M15.7433 6.03478C15.7808 6.06522 15.7933 6.38264 15.785 7.48273L15.7725 8.89155H14.5425H13.3126L13.3001 7.48273C13.2918 6.38264 13.3043 6.06522 13.3418 6.03478C13.371 6.01739 13.913 6 14.5425 6C15.1721 6 15.7141 6.01739 15.7433 6.03478Z" fill="#f0f0f0"/>
<path d="M11.6449 7.23923V8.45673H6.82951H2.01407L2.00156 7.28272C1.99739 6.63918 2.00156 6.08696 2.01407 6.05653C2.02658 6.00869 2.9855 6 6.83785 6.00869L11.6449 6.02174V7.23923Z" fill="#f0f0f0"/>
<path d="M8.05526 11.4005C8.06776 11.6005 8.0761 13.1615 8.07193 14.8703L8.05942 17.9793H6.85035H5.64128L5.63294 15.8269C5.62878 14.6442 5.62461 13.2137 5.62461 12.6527C5.62044 12.0918 5.63295 11.5005 5.64545 11.3352L5.67464 11.0439H6.85035H8.03024L8.05526 11.4005Z" fill="#f0f0f0"/>
</svg>
