<svg width="180" height="56" viewBox="0 0 180 56" fill="none" xmlns="http://www.w3.org/2000/svg">
<path d="M74.6612 38.9122C74.6612 37.5339 75.2482 36.3003 76.1814 35.4474C76.298 35.3408 76.3695 35.1961 76.3695 35.0362C76.3695 34.8801 76.298 34.7316 76.1814 34.625C75.2482 33.7722 74.6612 32.5386 74.6612 31.1603C74.6612 29.782 75.2482 28.5484 76.1814 27.6955C76.298 27.5889 76.3695 27.4442 76.3695 27.2843C76.3695 27.1244 76.298 26.9797 76.1814 26.8731C75.2482 26.0203 74.6612 24.7867 74.6612 23.4084C74.6612 22.0301 75.2482 20.7965 76.1814 19.9436C76.298 19.837 76.3695 19.6923 76.3695 19.5324C76.3695 19.3763 76.298 19.2278 76.1814 19.1212C75.2482 18.2684 74.6612 17.0348 74.6612 15.6565C74.6612 14.2782 75.2482 13.0446 76.1814 12.1917C76.298 12.0851 76.3695 11.9404 76.3695 11.7805V11.5445C76.3695 11.2437 76.1287 11 75.8352 11H11.7289C9.67067 11 8 12.7019 8 14.796V17.0804C8 17.2746 8.10536 17.4498 8.27092 17.5526C9.43738 18.2912 10.2125 19.6086 10.2125 21.1087C10.2125 22.6088 9.43738 23.9262 8.27092 24.6648C8.10912 24.7676 8 24.9428 8 25.1369V29.4203C8 29.6145 8.10536 29.7896 8.27092 29.8924C9.43738 30.631 10.2125 31.9484 10.2125 33.4485C10.2125 34.9486 9.43738 36.266 8.27092 37.0046C8.10912 37.1074 8 37.2826 8 37.4768V39.7612C8 41.8591 9.67067 43.5572 11.7289 43.5572H75.8314C76.1287 43.5572 76.3657 43.3135 76.3657 43.0127V42.7767C76.3657 42.6206 76.2942 42.4721 76.1776 42.3655C75.2482 41.5241 74.6612 40.2866 74.6612 38.9122Z" fill="white"/>
<path d="M53.6681 22.9898C57.447 22.9898 59.4424 24.6522 59.4424 27.8566V29.6205C59.4424 30.3916 59.1005 30.7639 58.3685 30.7639H51.6207V31.8057C51.6207 33.0243 52.2301 33.5697 53.7907 33.5697C55.0095 33.5697 55.5928 33.1973 55.5928 32.4752V32.3774C55.5928 32.0803 55.6895 31.9562 56.009 31.9562H58.8107C59.1042 31.9562 59.2752 32.1292 59.2752 32.4526V32.652C59.2752 35.0102 57.3504 36.2288 53.7907 36.2288C49.9152 36.2288 47.7229 34.5664 47.7229 31.3882V28.0371C47.7229 24.7537 49.9152 22.9898 53.6681 22.9898ZM23.3029 18.5479C27.3234 18.5479 29.2741 19.9884 29.2741 22.9672V23.6856C29.2741 25.2727 28.4938 26.4161 27.0075 27.0367C28.6647 27.6347 29.5417 28.8232 29.5417 30.5382V31.3807C29.5417 34.4084 27.5426 35.9241 23.5221 35.9241H17.5286C16.674 35.9241 16.1389 35.3788 16.1389 34.5099V19.9583C16.1389 19.0895 16.674 18.5442 17.5286 18.5442H23.3029V18.5479ZM35.6095 23.2906C36.3638 23.2906 36.7539 23.6367 36.7539 24.4566V32.2796C36.7539 32.7498 36.9026 32.9265 37.315 32.9265H38.0953C38.4595 32.9265 38.727 33.1748 38.727 33.5734V35.0628C38.727 35.6345 38.4335 35.9316 37.8501 35.9316H36.3861C33.681 35.9316 32.8041 34.8898 32.8041 32.6031V26.2469H31.6113C31.2472 26.2469 30.9797 25.9986 30.9797 25.6263V23.9376C30.9797 23.5389 31.2472 23.2906 31.6113 23.2906H35.6095ZM42.9927 18.3223C43.8436 18.3223 44.4084 18.8939 44.4084 19.7628V32.2759C44.4084 32.746 44.5533 32.9228 44.9695 32.9228H45.7498C46.1139 32.9228 46.3852 33.171 46.3852 33.5697V35.0591C46.3852 35.6307 46.0916 35.9279 45.5083 35.9279H44.0443C41.3392 35.9279 40.4623 34.886 40.4623 32.5993V19.7628C40.4623 18.8939 41.0234 18.3223 41.8743 18.3223H42.9927ZM65.0978 19.9132C65.9004 19.9132 66.4131 20.436 66.4131 21.3048V23.2906H68.3862C68.7764 23.2906 69.0439 23.5652 69.0439 23.9376V25.5999C69.0439 25.9723 68.7764 26.2469 68.3862 26.2469H66.4354V31.9599C66.4354 32.6294 66.6807 32.8776 67.3384 32.8776H68.3862C68.7764 32.8776 69.0439 33.1259 69.0439 33.5471V35.1606C69.0439 35.6571 68.7987 35.9316 68.3379 35.9316H66.5358C63.5632 35.9316 62.5153 34.8372 62.5153 32.1818V26.2469H61.2445C60.8544 26.2469 60.5868 25.9761 60.5868 25.5999V23.9376C60.5868 23.5652 60.8544 23.2906 61.2445 23.2906H62.5116V21.3048C62.5116 20.436 63.0244 19.9132 63.827 19.9132H65.0978ZM23.3772 28.5787H20.1594V32.9491H23.3772C24.8635 32.9491 25.5472 32.3774 25.5472 31.1363V30.3916C25.5472 29.1504 24.8635 28.5787 23.3772 28.5787ZM53.6421 25.5999C52.2784 25.5999 51.6207 26.2205 51.6207 27.4128V28.3568H55.7155V27.4128C55.7155 26.2205 55.0095 25.5999 53.6421 25.5999ZM23.158 21.5267H20.1594V25.6977H23.158C24.6183 25.6977 25.276 25.1749 25.276 23.9601V23.3132C25.276 22.0721 24.6183 21.5267 23.158 21.5267ZM35.4163 18.4953C36.2189 18.4953 36.635 18.9165 36.635 19.7139V20.8309C36.635 21.6019 36.1966 22.0232 35.4163 22.0232H33.6364C32.8561 22.0232 32.4177 21.6019 32.4177 20.8309V19.7139C32.4177 18.9203 32.8338 18.4953 33.6364 18.4953H35.4163Z" fill="black"/>
<path d="M100.411 23.6301C100.784 23.6301 101.029 23.8775 101.029 24.2486V31.4157C101.029 33.4249 102.068 34.5157 104 34.5157C105.932 34.5157 106.997 33.4249 106.997 31.4157V24.2486C106.997 23.8775 107.219 23.6301 107.615 23.6301H108.432C108.805 23.6301 109.049 23.8775 109.049 24.2486V33.0313L110.413 34.3957C110.808 34.7931 110.785 35.1904 110.439 35.5353L110.142 35.8314C109.795 36.18 109.373 36.1275 109.053 35.8052L107.57 34.317C106.85 35.5578 105.54 36.2288 103.808 36.2288C100.837 36.2288 98.9803 34.467 98.9803 31.4157V24.2486C98.9803 23.8775 99.2288 23.6301 99.5978 23.6301H100.411ZM142.842 23.3565C145.986 23.3565 147.643 24.7209 147.643 27.4011V33.0313L149.006 34.3957C149.402 34.7931 149.379 35.1904 149.033 35.5353L148.735 35.8314C148.389 36.18 147.967 36.1275 147.647 35.8052L146.212 34.3658C145.47 35.5053 144.058 36.225 142.3 36.225C139.427 36.225 137.819 34.8606 137.819 32.6789V32.4315C137.819 30.025 139.378 28.8368 142.62 28.8368C143.588 28.8368 144.552 28.9605 145.591 29.2079V27.2961C145.591 25.733 144.725 24.9908 142.868 24.9908C140.963 24.9908 140.221 25.6618 140.221 26.925V27.0975C140.221 27.3449 140.097 27.4948 139.826 27.4948H138.685C138.414 27.4948 138.263 27.3449 138.263 27.0712V26.9213C138.259 24.6722 139.796 23.3565 142.842 23.3565ZM122.914 23.6301C123.283 23.6301 123.483 23.8025 123.483 24.1024C123.483 24.3273 123.434 24.4998 123.11 24.8709L119.025 29.6314L123.257 34.3695C123.705 34.8905 123.604 35.509 123.133 35.8577C122.711 36.2063 122.045 36.1538 121.623 35.659L117.315 30.6473C117.044 30.3249 116.942 30.0288 116.942 29.7064C116.942 29.4103 117.04 29.1104 117.315 28.788L121.201 24.1736C121.525 23.7763 121.721 23.6264 122.191 23.6264H122.914V23.6301ZM135.537 23.6301C135.906 23.6301 136.105 23.8025 136.105 24.1024C136.105 24.3273 136.056 24.4998 135.733 24.8709L131.651 29.6314L135.883 34.3695C136.327 34.8905 136.23 35.509 135.759 35.8577C135.337 36.2063 134.671 36.1538 134.249 35.659L129.941 30.6473C129.67 30.3249 129.572 30.0288 129.572 29.7064C129.572 29.4103 129.67 29.1104 129.941 28.788L133.827 24.1736C134.151 23.7763 134.347 23.6264 134.817 23.6264H135.537V23.6301ZM87.8604 18.5959C92.6879 18.5959 95.2109 20.6801 95.2109 25.3657V29.1854C95.2109 33.8747 92.6842 35.9589 87.8604 35.9589H83.8727C83.2551 35.9589 82.8823 35.5878 82.8823 34.9655V19.5855C82.8823 18.967 83.2551 18.5922 83.8727 18.5922H87.8604V18.5959ZM114.769 18.3223C115.315 18.3223 115.636 18.6709 115.636 19.1919V35.3404C115.636 35.7115 115.413 35.9589 115.018 35.9589H114.201C113.828 35.9589 113.583 35.7115 113.583 35.3404V19.1919C113.583 18.6709 113.93 18.3223 114.449 18.3223H114.769ZM127.395 18.3223C127.941 18.3223 128.262 18.6709 128.262 19.1919V35.3404C128.262 35.7115 128.039 35.9589 127.644 35.9589H126.827C126.454 35.9589 126.206 35.7115 126.206 35.3404V19.1919C126.206 18.6709 126.552 18.3223 127.072 18.3223H127.395ZM157.716 23.3565C160.687 23.3565 162.544 25.1183 162.544 28.1695V35.3366C162.544 35.7077 162.295 35.9551 161.926 35.9551H161.109C160.736 35.9551 160.491 35.7077 160.491 35.3366V28.1695C160.491 26.1603 159.452 25.0695 157.52 25.0695C155.589 25.0695 154.527 26.1603 154.527 28.1695V35.3366C154.527 35.7077 154.304 35.9551 153.909 35.9551H153.092C152.719 35.9551 152.474 35.7077 152.474 35.3366V26.5539L151.111 25.1895C150.716 24.7921 150.738 24.3948 151.085 24.0499L151.382 23.7538C151.729 23.4052 152.151 23.4577 152.471 23.7801L153.954 25.2682C154.673 24.0275 155.984 23.3565 157.716 23.3565ZM168.335 23.6301C168.881 23.6301 169.126 23.855 169.126 24.3986V33.0051C169.126 33.9497 169.348 34.2196 170.165 34.2196H171.107C171.404 34.2196 171.6 34.4182 171.6 34.7144V35.4078C171.6 35.7564 171.4 35.9551 171.054 35.9551H170.015C167.785 35.9551 167.043 35.1604 167.043 33.1512V25.3132H165.236C164.939 25.3132 164.716 25.1145 164.716 24.8184V24.1249C164.716 23.8288 164.939 23.6301 165.236 23.6301H168.335ZM142.767 30.2537C140.812 30.2537 139.822 30.9471 139.822 32.3378V32.6115C139.822 33.9009 140.763 34.6207 142.593 34.6207C144.375 34.6207 145.587 33.6273 145.587 32.2141V30.651C144.574 30.3774 143.708 30.2537 142.767 30.2537ZM87.8868 20.3315H84.9911V34.2233H87.8868C91.3286 34.2233 93.0871 32.7839 93.0871 29.2641V25.2944C93.0833 21.7709 91.3286 20.3315 87.8868 20.3315ZM106.131 18.5209C106.673 18.5209 106.997 18.8171 106.997 19.3906V20.6313C106.997 21.1786 106.673 21.4747 106.131 21.4747H105.683C105.137 21.4747 104.817 21.1786 104.817 20.6313V19.3906C104.817 18.8208 105.137 18.5209 105.683 18.5209H106.131ZM102.366 18.5209C102.912 18.5209 103.232 18.8171 103.232 19.3906V20.6313C103.232 21.1786 102.912 21.4747 102.366 21.4747H101.921C101.375 21.4747 101.055 21.1786 101.055 20.6313V19.3906C101.055 18.8208 101.375 18.5209 101.921 18.5209H102.366Z" fill="white"/>
</svg>
