<svg width="180" height="56" viewBox="0 0 180 56" fill="none" xmlns="http://www.w3.org/2000/svg">
<g clip-path="url(#clip0_1119_658)">
<path d="M102.983 18.4492C103.037 18.3965 103.089 18.375 103.136 18.375C103.216 18.375 103.271 18.445 103.27 18.5322C103.268 18.5839 103.244 18.6403 103.195 18.6896C101.19 21.1534 99.7321 24.0341 99.7321 28.0292C99.7321 32.0223 101.19 34.8462 103.195 37.3083C103.244 37.3574 103.268 37.417 103.27 37.4662C103.271 37.5536 103.216 37.625 103.136 37.625C103.089 37.625 103.037 37.6031 102.983 37.5481L94.4417 29.3817C94.016 29.0214 93.7427 28.6007 93.7427 28.0002C93.7427 27.3986 94.016 26.9775 94.4417 26.6202L102.983 18.4492Z" fill="white"/>
<path d="M109.198 17.6875C105.913 17.6875 104.631 22.4065 104.631 28.0307C104.631 33.6566 105.913 38.3125 109.198 38.3125C111.17 38.3125 112.85 37.1424 112.855 36.181C112.855 35.9694 112.776 35.7692 112.602 35.593C111.668 34.6789 111.303 33.7632 111.3 32.9569C111.294 31.4154 112.614 30.2681 113.826 30.2681C115.498 30.2681 116.483 31.5998 116.483 33.3237C116.483 34.9571 115.796 36.3188 115.052 37.4086C115.02 37.4529 115.009 37.5017 115.009 37.5457C115.009 37.6293 115.057 37.7006 115.132 37.7006C115.179 37.7006 115.23 37.6764 115.288 37.6174L123.679 29.3925C124.097 29.0302 124.365 28.6057 124.365 28.0016C124.365 27.3958 124.097 26.972 123.679 26.6117L115.288 18.383C115.23 18.3272 115.179 18.3009 115.132 18.3009C115.055 18.3009 115.009 18.3725 115.009 18.4577C115.009 18.5022 115.02 18.5508 115.052 18.5969C115.796 19.6851 116.483 21.0466 116.483 22.6779C116.483 24.4011 115.498 25.7344 113.826 25.7344C112.614 25.7344 111.294 24.5862 111.3 23.0457C111.303 22.2398 111.668 21.3243 112.602 20.4102C112.776 20.2329 112.855 20.0324 112.855 19.8225C112.85 18.8602 111.17 17.6875 109.198 17.6875Z" fill="white"/>
<path d="M77.5354 33.0541C77.3653 32.8188 77.2751 32.5182 77.1937 32.1733C77.0988 32.2795 76.9874 32.3941 76.8193 32.5545C76.1985 33.1349 75.3891 33.486 74.4745 33.486C73.4787 33.486 72.6287 33.1037 72.089 32.466C71.2585 31.4762 71.2645 30.2202 71.2638 28.4356V26.7162C71.2446 26.0203 71.0256 25.7832 70.38 25.7651C70.2962 25.7651 70.2042 25.7707 70.1061 25.782L70.0286 25.7905L69.9994 25.7181C69.9483 25.5907 69.9255 25.4658 69.9255 25.348C69.9458 24.5166 70.9984 24.072 71.6182 23.9435C71.8343 23.9105 72.0375 23.875 72.2354 23.875C72.739 23.8748 73.1123 24.0359 73.3463 24.3281C73.5808 24.6182 73.6733 25.0185 73.6747 25.484L73.6572 28.4195C73.6572 29.5033 73.7348 30.3147 73.975 30.8357C74.2176 31.3527 74.5847 31.5974 75.262 31.6029C75.9976 31.6009 76.4434 31.2847 76.727 30.8137C77.0092 30.34 77.1138 29.7031 77.1124 29.0924V26.7162C77.0953 26.0203 76.8753 25.782 76.2304 25.7651C76.1453 25.7651 76.0542 25.7707 75.9577 25.782L75.8793 25.7905L75.8498 25.7181C75.7999 25.5907 75.774 25.4658 75.774 25.348C75.7945 24.5166 76.8466 24.072 77.4705 23.9435C77.6837 23.9105 77.8901 23.875 78.0875 23.875C78.5918 23.8748 78.9649 24.0359 79.2 24.3281C79.4371 24.6182 79.5301 25.0185 79.5301 25.4829C79.5301 25.82 79.4986 26.4187 79.4986 28.9184C79.4986 29.975 79.4795 30.5357 79.4795 30.7077C79.4959 31.4275 79.7412 31.7509 80.4054 31.765C80.4765 31.765 80.5516 31.7597 80.6323 31.7513L80.7088 31.7428L80.7375 31.8156C80.7888 31.9428 80.8134 32.0622 80.8134 32.1765C80.7867 32.9893 79.731 33.3136 79.1194 33.4361C78.9075 33.468 78.7128 33.5 78.5406 33.5H78.5276C78.0547 33.5 77.7349 33.3341 77.5354 33.0541Z" fill="white"/>
<path d="M82.318 33.3378C81.9326 33.228 81.6832 33.0078 81.6859 32.6758C81.6859 32.5462 81.7228 32.4071 81.7898 32.2556L81.8096 32.2085L81.8581 32.1986C82.003 32.168 82.2538 32.0907 82.4649 31.914C82.6959 31.7172 82.784 31.4432 82.784 30.6712V26.7843C82.7669 26.1299 82.6241 25.9013 82.1 25.885C81.9818 25.885 81.8444 25.9013 81.6859 25.9325L81.6046 25.9473L81.5745 25.8698C81.5199 25.7217 81.4939 25.5842 81.4939 25.453C81.5069 24.6754 82.3235 24.2757 82.8722 24.0967C83.0963 24.0275 83.2911 23.9917 83.4926 23.9917C84.2375 23.991 84.642 24.5488 84.8149 25.2671C85.3035 24.4318 86.0825 23.8784 86.8499 23.875C87.5708 23.8773 88.2944 24.3666 88.2985 25.2984C88.2965 25.9606 87.8482 26.653 87.1006 26.6572C86.543 26.6572 86.0551 26.2757 85.9479 25.7131C85.5242 25.858 84.9263 26.4106 84.9201 28.3268V30.6712C84.9235 31.44 85.0254 31.7172 85.2351 31.9121C85.4524 32.0829 85.8946 32.168 86.049 32.1986L86.0961 32.2085L86.1173 32.2567C86.1904 32.4219 86.2328 32.5706 86.2328 32.7107C86.2342 33.0251 86.008 33.2403 85.6472 33.3439C85.2789 33.4569 84.7431 33.5 84.0174 33.5C83.2726 33.5 82.7095 33.4543 82.318 33.3378Z" fill="white"/>
<path d="M54.6003 33.3324C55.0066 33.4528 55.5912 33.5 56.3629 33.5C57.1477 33.5 57.7654 33.4528 58.1975 33.3245C58.6269 33.2048 58.9094 32.9762 58.9094 32.6148C58.9094 32.4889 58.8757 32.3572 58.814 32.2165L58.7914 32.1656L58.7411 32.1568C58.5711 32.1251 57.9909 32.0318 57.786 31.8611C57.5556 31.6546 57.4299 31.3711 57.4271 30.5802V25.3481C57.7153 25.3538 58.1002 25.3833 58.4886 25.3833C58.6545 25.3833 58.8392 25.3833 59.0136 25.3638C59.4706 25.3203 59.8323 24.9248 59.8316 24.3979C59.8316 24.2372 59.7992 24.0667 59.7281 23.8889L59.7026 23.8239H57.3622V22.3066C57.3604 21.7642 57.4251 21.2836 57.6148 20.9562C57.806 20.6295 58.1063 20.4338 58.6545 20.4298C58.9962 20.4267 59.3497 20.5284 59.5339 20.6991C59.415 20.8883 59.3332 21.1436 59.3321 21.3952C59.3371 22.0802 59.9093 22.618 60.5305 22.6221C61.3612 22.6204 61.7595 21.8833 61.7595 21.2886C61.7512 19.917 60.272 19.0644 58.5046 19.0625C57.1002 19.0608 56.1764 19.6487 55.647 20.5079C55.3019 21.046 55.0491 21.8495 55.0491 23.2589V23.8427H54.4532C53.9767 23.8427 53.5946 24.1851 53.5935 24.6988C53.5935 24.855 53.6275 25.0212 53.6968 25.1953L53.7221 25.2581L55.083 25.3083V30.5802C55.0807 31.3761 54.9866 31.6598 54.7539 31.8655C54.5261 32.0472 54.2758 32.1251 54.1186 32.1568L54.069 32.1667L54.0464 32.2155C53.9774 32.3691 53.9413 32.5134 53.9413 32.6463C53.9397 32.9893 54.1981 33.2174 54.6003 33.3324Z" fill="white"/>
<path d="M38.7633 33.3378C39.1545 33.4543 39.7167 33.5 40.4606 33.5C41.1894 33.5 41.7263 33.4569 42.094 33.3438C42.4593 33.2384 42.6855 33.0216 42.6822 32.7069C42.6822 32.5669 42.6433 32.4184 42.5708 32.2566L42.5505 32.2084L42.501 32.1985C42.34 32.1678 41.9001 32.0827 41.692 31.912C41.4708 31.7159 41.3635 31.4398 41.3608 30.6709V28.3262C41.3664 26.4121 41.9739 25.858 42.4 25.7124C42.5039 26.275 42.9879 26.6566 43.5417 26.6566C44.2973 26.6533 44.7455 25.9599 44.7469 25.2976C44.7449 24.364 44.0112 23.8764 43.3001 23.875C42.5355 23.8775 41.7539 24.4229 41.2628 25.249C41.0878 24.5401 40.6826 23.9901 39.9306 23.9908C39.7417 23.9908 39.5407 24.0265 39.3237 24.0958C38.7726 24.2748 37.9556 24.6709 37.9419 25.4453C37.9419 25.5786 37.9684 25.7209 38.0258 25.869L38.0564 25.9465L38.1345 25.9318C38.2938 25.9007 38.4321 25.8842 38.5518 25.8842C39.0721 25.9006 39.2199 26.1292 39.2378 26.7837V30.6709C39.2367 31.4421 39.1439 31.717 38.9199 31.9163C38.6992 32.0923 38.4588 32.1678 38.3075 32.1985L38.258 32.2084L38.237 32.2566C38.1696 32.407 38.1338 32.5461 38.1323 32.6758C38.1323 33.0068 38.3789 33.228 38.7633 33.3378Z" fill="white"/>
<path d="M31.2789 33.3378C30.8935 33.228 30.6476 33.0069 30.6476 32.6758C30.6485 32.5462 30.6845 32.4072 30.7521 32.2567L30.7724 32.2085L30.8221 32.1986C30.9712 32.168 31.215 32.0925 31.4349 31.9166C31.6604 31.7172 31.7516 31.4423 31.7536 30.6712V26.7843C31.7344 26.1299 31.5873 25.9013 31.0651 25.885C30.948 25.885 30.8089 25.9013 30.6507 25.9325L30.5703 25.9473L30.5411 25.8698C30.4828 25.7217 30.4565 25.5794 30.4565 25.446C30.47 24.6717 31.2867 24.2757 31.8395 24.0967C32.056 24.0275 32.2575 23.9917 32.4441 23.9917C33.1973 23.991 33.6023 24.5409 33.7772 25.2463C34.2695 24.4238 35.0491 23.8784 35.8149 23.875C36.5271 23.8773 37.2593 24.3649 37.2615 25.2984C37.2606 25.9606 36.8115 26.654 36.0552 26.6572C35.5039 26.6572 35.0181 26.2757 34.915 25.7131C34.4876 25.8587 33.8828 26.4127 33.8759 28.3268V30.6712C33.8781 31.44 33.9848 31.7161 34.2055 31.9121C34.4122 32.0829 34.856 32.168 35.0151 32.1986L35.0649 32.2085L35.0857 32.2567C35.1569 32.4196 35.1988 32.567 35.1988 32.707C35.2011 33.0216 34.9737 33.2384 34.6082 33.3439C34.2406 33.4569 33.7041 33.5 32.9749 33.5C32.231 33.5 31.6688 33.4543 31.2789 33.3378Z" fill="white"/>
<path fill-rule="evenodd" clip-rule="evenodd" d="M65.1957 23.875C66.5639 23.875 67.7491 24.3604 68.5889 25.2046C69.4314 26.0485 69.9254 27.2505 69.9254 28.6704C69.9254 30.0937 69.4099 31.305 68.5468 32.1572C67.6851 33.0082 66.4799 33.5 65.1151 33.5H65.1137C63.8169 33.5 62.6378 33.015 61.782 32.1676C60.9278 31.3219 60.3984 30.1108 60.3984 28.6704C60.4025 25.8194 62.6542 23.8798 65.1957 23.875ZM63.0239 28.408C63.0292 30.9315 64.1305 32.0173 65.211 32.0204C66.4491 32.019 67.3416 30.9324 67.3487 28.8075C67.3501 27.6972 67.1036 26.8093 66.7008 26.2089C66.2977 25.6064 65.7477 25.2865 65.1137 25.2865C63.8304 25.2881 63.0315 26.4428 63.0239 28.408Z" fill="white"/>
<path fill-rule="evenodd" clip-rule="evenodd" d="M27.8699 31.1106C27.8797 31.7588 28.2309 31.9357 29.0059 32.0591L29.0955 32.0714L29.0894 32.1655C29.0452 33.047 28.4206 33.4139 27.7492 33.4695C27.6901 33.4746 27.6334 33.4775 27.5763 33.4775C26.917 33.4791 26.2807 33.1417 25.9772 32.4564C25.5639 32.8201 24.6278 33.4982 23.417 33.5C21.6174 33.4968 20.253 32.2339 20.249 30.5052C20.2464 29.5942 20.6345 28.857 21.2846 28.3579C21.9342 27.8606 22.8411 27.5964 23.8931 27.5964C24.5504 27.598 25.2264 27.7214 25.6955 27.9331V26.9107C25.6803 25.8794 25.3058 25.2948 24.194 25.2816C23.9856 25.2816 23.5212 25.3379 23.1399 25.4718C23.1764 25.6205 23.1993 25.7719 23.1993 25.9191C23.1993 26.2633 23.0935 26.5811 22.8925 26.8145C22.6937 27.0482 22.397 27.1905 22.0404 27.1905C21.4007 27.1884 20.9155 26.647 20.914 25.9696C20.9281 24.7176 22.3881 23.8755 24.339 23.875C25.885 23.875 26.8564 24.2553 27.3739 24.9497C27.8463 25.573 27.8684 26.4831 27.8699 27.7667V31.1106ZM24.1312 31.8368C24.7169 31.8384 25.3169 31.4992 25.6955 31.0119V29.7131C25.6955 29.5353 25.5842 29.3428 25.3453 29.1867C25.105 29.0314 24.7414 28.923 24.2738 28.923C23.3028 28.9337 22.6497 29.4079 22.6451 30.3471C22.6505 31.2345 23.2254 31.8302 24.1312 31.8368Z" fill="white"/>
<path fill-rule="evenodd" clip-rule="evenodd" d="M52.2422 30.5047L52.3186 30.5639C52.476 30.6818 52.6485 30.8979 52.6444 31.312C52.6386 32.2703 51.5579 33.4988 49.1628 33.5C46.7294 33.4955 44.7512 31.4812 44.7468 28.8458C44.7468 27.4044 45.2026 26.1614 46.0029 25.2772C46.8002 24.3937 47.9409 23.8745 49.2916 23.875C50.5218 23.8745 51.4329 24.349 52.0303 25.0279C52.6273 25.7064 52.9128 26.5846 52.9128 27.3947C52.9128 27.8725 52.8164 28.319 52.6151 28.6949L52.589 28.7468H47.0899C47.1817 30.4091 48.2008 31.5709 49.9727 31.578C51.0639 31.5795 51.9035 30.955 52.1837 30.5828L52.2422 30.5047ZM50.654 26.9675C50.637 26.0944 49.983 25.2841 48.9735 25.2841C47.7031 25.2841 47.1894 26.3391 47.1092 27.4072H50.3546C50.5308 27.4033 50.578 27.3623 50.6119 27.3038C50.6462 27.2423 50.6556 27.1187 50.654 26.9675Z" fill="white"/>
<path d="M9.83979 31.6838C8.72109 30.507 7.99909 28.7901 8 26.6517C8 24.6059 8.70467 22.8794 9.80512 21.6651C10.9063 20.4516 12.4039 19.75 13.9825 19.75C16.8143 19.7552 18.8138 21.7848 18.8237 23.5402C18.8218 24.4798 18.2431 25.205 17.4581 25.2071C17.0712 25.2071 16.7085 25.0712 16.4427 24.8146C16.1765 24.558 16.0104 24.1827 16.0111 23.7248C16.0104 23.1758 16.2853 22.8423 16.4902 22.6036C16.1179 21.9421 15.3804 21.3961 14.2263 21.3928C13.2449 21.3949 12.418 21.9154 11.8226 22.8351C11.2286 23.7541 10.8764 25.0733 10.8764 26.6327C10.8764 28.19 11.2423 29.5039 11.8552 30.4194C12.4655 31.336 13.3104 31.8541 14.2929 31.8567C15.4472 31.8541 16.185 31.3147 16.5545 30.6478C16.3488 30.4135 16.0764 30.0775 16.0764 29.5329C16.0764 29.0753 16.2404 28.6966 16.5071 28.4394C16.7742 28.1847 17.1362 28.0478 17.5235 28.0478C18.3083 28.0478 18.8859 28.7709 18.888 29.708C18.8798 31.4708 16.8787 33.4942 14.0479 33.5C12.473 33.5 10.9589 32.8598 9.83979 31.6838Z" fill="white"/>
<path d="M9.83979 31.6838C10.9589 32.8598 12.473 33.5 14.0479 33.5C16.8787 33.4942 18.8798 31.4708 18.888 29.708C18.8859 28.7709 18.3083 28.0478 17.5235 28.0478C17.1362 28.0478 16.7742 28.1847 16.5071 28.4394C16.2404 28.6966 16.0764 29.0753 16.0764 29.5329C16.0764 30.0775 16.3488 30.4135 16.5545 30.6478C16.185 31.3147 15.4472 31.8541 14.2929 31.8567C13.3104 31.8541 12.4655 31.336 11.8552 30.4194C11.2423 29.5039 10.8764 28.19 10.8764 26.6327C10.8764 25.0733 11.2286 23.7541 11.8226 22.8351C12.418 21.9154 13.2449 21.3949 14.2263 21.3928C15.3804 21.3961 16.1179 21.9421 16.4902 22.6036C16.2853 22.8423 16.0104 23.1758 16.0111 23.7248C16.0104 24.1827 16.1765 24.558 16.4427 24.8146C16.7085 25.0712 17.0712 25.2071 17.4581 25.2071C18.2431 25.205 18.8218 24.4798 18.8237 23.5402C18.8138 21.7848 16.8143 19.7552 13.9825 19.75C12.4039 19.75 10.9063 20.4516 9.80512 21.6651C8.70467 22.8794 8 24.6059 8 26.6517C7.99909 28.7901 8.72109 30.507 9.83979 31.6838Z" fill="white"/>
<path d="M9.83979 31.6838C10.9589 32.8598 12.473 33.5 14.0479 33.5C16.8787 33.4942 18.8798 31.4708 18.888 29.708C18.8859 28.7709 18.3083 28.0478 17.5235 28.0478C17.1362 28.0478 16.7742 28.1847 16.5071 28.4394C16.2404 28.6966 16.0764 29.0753 16.0764 29.5329C16.0764 30.0775 16.3488 30.4135 16.5545 30.6478C16.185 31.3147 15.4472 31.8541 14.2929 31.8567C13.3104 31.8541 12.4655 31.336 11.8552 30.4194C11.2423 29.5039 10.8764 28.19 10.8764 26.6327C10.8764 25.0733 11.2286 23.7541 11.8226 22.8351C12.418 21.9154 13.2449 21.3949 14.2263 21.3928C15.3804 21.3961 16.1179 21.9421 16.4902 22.6036C16.2853 22.8423 16.0104 23.1758 16.0111 23.7248C16.0104 24.1827 16.1765 24.558 16.4427 24.8146C16.7085 25.0712 17.0712 25.2071 17.4581 25.2071C18.2431 25.205 18.8218 24.4798 18.8237 23.5402C18.8138 21.7848 16.8143 19.7552 13.9825 19.75C12.4039 19.75 10.9063 20.4516 9.80512 21.6651C8.70467 22.8794 8 24.6059 8 26.6517C7.99909 28.7901 8.72109 30.507 9.83979 31.6838Z" fill="white"/>
<path d="M163.484 28.9794H158.868L161.159 24.318L163.484 28.9794Z" fill="white"/>
<path fill-rule="evenodd" clip-rule="evenodd" d="M161.181 17C167.156 17 172 21.9247 172 28C172 34.0754 167.156 39 161.181 39C156.39 39 152.325 35.8327 150.903 31.4445C149.483 35.8327 145.419 39 140.628 39C134.652 39 129.809 34.0754 129.809 28C129.809 21.9247 134.652 17 140.628 17C145.419 17 149.482 20.1679 150.903 24.5555C152.325 20.1678 156.39 17 161.181 17ZM140.706 21.8125C138.599 21.8125 137.683 21.8474 136.621 22.0021C134.596 22.2786 133.892 23.2109 133.892 25.5065C133.892 27.3194 134.351 28.2007 135.493 28.6148C136.05 28.8209 136.997 28.908 138.582 28.908H141.588C142.944 28.908 143.026 28.9243 143.221 28.9422C143.891 29.0112 144.218 29.339 144.218 29.9266C144.218 30.9449 143.809 31.0483 139.904 31.0483C139.071 31.0482 138.141 30.9963 137.83 30.9282C137.341 30.8068 137.226 30.5997 137.193 29.7364H133.942C133.925 29.9956 133.925 30.2883 133.925 30.4107C133.925 32.0501 134.449 32.8788 135.673 33.2068C136.473 33.4313 137.585 33.5 140.052 33.5C142.388 33.5 143.319 33.4654 144.626 33.3269C146.717 33.1029 147.502 32.1533 147.502 29.8401C147.502 28.6492 147.273 27.7855 146.832 27.2683C146.326 26.647 145.656 26.4396 144.022 26.3703C143.139 26.3361 142.486 26.3179 142.29 26.3179H139.203C138.158 26.3179 138.074 26.2835 137.896 26.249C137.406 26.129 137.16 25.8166 137.16 25.3163C137.16 24.6784 137.454 24.4364 138.271 24.3679C138.778 24.3332 140.248 24.2807 141.26 24.2807C143.499 24.2807 143.81 24.4198 143.81 25.4206H147.044C147.044 23.4358 146.685 22.6411 145.59 22.2093C144.757 21.8814 143.891 21.8125 140.706 21.8125ZM152.946 33.5H156.659L157.69 31.4154H164.628L165.695 33.5H169.279L163.388 21.8125H158.997L152.946 33.5Z" fill="white"/>
</g>
<defs>
<clipPath id="clip0_1119_658">
<rect width="164" height="22" fill="white" transform="translate(8 17)"/>
</clipPath>
</defs>
</svg>
