<svg width="180" height="56" viewBox="0 0 180 56" fill="none" xmlns="http://www.w3.org/2000/svg">
<g clip-path="url(#clip0_1119_788)">
<path d="M18.441 19.7735V21.8443C14.9907 22.1095 11.6693 23.0569 9.14118 24.6913C8.25792 25.2627 7.95376 26.4536 8.47691 27.36L11.5209 32.6346C11.6839 32.9167 11.898 33.1722 12.173 33.3506C12.8689 33.8014 13.7376 33.7845 14.3945 33.3578C16.7499 31.8295 20.8523 31.4775 24.0107 32.3044C24.5898 32.4562 24.9158 33.0637 24.6968 33.6158C24.5168 34.0738 24.0253 34.3245 23.5435 34.2088C20.4849 33.4712 16.8594 33.8737 14.4213 35.4118C13.504 35.9904 13.156 37.2029 13.7035 38.1335C14.0806 38.7747 14.7547 39.1243 15.4433 39.1243C15.8204 39.1243 16.2024 39.0182 16.5431 38.7988C17.0662 38.4589 17.7256 38.213 18.4434 38.0515V39.7366C18.4434 40.7756 19.2099 41.7062 20.2562 41.805C21.4558 41.9183 22.4631 40.9878 22.4631 39.8234V38.0515C23.1834 38.2106 23.8404 38.4589 24.3635 38.7988C25.0764 39.2593 26.0278 39.2424 26.7408 38.6735C27.0255 38.4469 27.2298 38.1311 27.3637 37.7936L29.4879 32.4201C29.8334 31.5474 29.5171 30.5494 28.7263 30.0335C25.1348 27.6951 19.3291 27.2636 14.9201 28.7389C14.4237 28.9053 13.8836 28.7028 13.6232 28.2544C13.2801 27.6565 13.577 26.8995 14.2364 26.685C19.0931 25.0915 25.7407 25.5447 29.5828 28.0398C30.5585 28.6762 31.8846 28.358 32.454 27.3214C32.9577 26.4029 32.6097 25.2362 31.7265 24.6672C29.2032 23.0472 25.8989 22.1095 22.4656 21.8443V19.8603C22.4656 18.8188 21.6991 17.8907 20.6528 17.7919C20.5871 17.7846 20.5214 17.7822 20.4557 17.7822C19.3462 17.7822 18.4459 18.6742 18.4459 19.7735" fill="white"/>
<path d="M54.5064 30.6282C54.5064 31.2767 54.4626 31.8287 54.3702 32.2867H41.4765C41.6906 33.6488 42.2405 34.7167 43.1262 35.4882C44.0119 36.2596 45.1361 36.6453 46.5011 36.6453C47.4598 36.6453 48.3406 36.4525 49.1412 36.0667C49.9417 35.681 50.5403 35.1651 50.9345 34.5167L54.0149 36.4621C53.3823 37.6024 52.3993 38.4943 51.061 39.1356C49.7251 39.7792 48.1825 40.0999 46.433 40.0999C44.8197 40.0999 43.3428 39.7166 41.9996 38.9524C40.6565 38.1882 39.5932 37.1275 38.8096 35.775C38.0261 34.4226 37.6344 32.9256 37.6344 31.2815C37.6344 29.6374 38.0213 28.2223 38.7926 26.8988C39.5639 25.5753 40.62 24.5339 41.9558 23.7721C43.2917 23.0127 44.7613 22.6318 46.3624 22.6318C47.8613 22.6318 49.2361 22.9838 50.4819 23.6877C51.7277 24.3917 52.7083 25.3559 53.4261 26.5782C54.1415 27.8028 54.4991 29.1504 54.4991 30.6258M41.6127 29.3553H50.4454C50.3432 28.3042 49.893 27.446 49.0901 26.7807C48.2895 26.1153 47.3089 25.7826 46.1458 25.7826C44.9828 25.7826 44.0411 26.0984 43.2527 26.7301C42.4619 27.3617 41.9169 28.2367 41.6103 29.3529" fill="white"/>
<path d="M69.2226 22.9847H73.0793V39.7633H69.2226V37.4996C68.7725 38.259 68.0425 38.881 67.0327 39.3679C66.0229 39.8549 64.9547 40.096 63.8257 40.096C61.5457 40.096 59.6211 39.2522 58.0468 37.5647C56.4725 35.8772 55.6865 33.804 55.6865 31.3451C55.6865 28.8861 56.4749 26.8467 58.0468 25.1592C59.6211 23.4717 61.5457 22.6279 63.8257 22.6279C64.9425 22.6279 66.0083 22.8738 67.023 23.3656C68.0376 23.8574 68.77 24.4842 69.2226 25.2435V22.9799V22.9847ZM64.6214 36.463C65.5679 36.463 66.4682 36.2292 67.3198 35.7591C68.1714 35.289 68.8065 34.6911 69.2226 33.9655V28.8186C68.8065 28.0713 68.1739 27.459 67.3271 26.9841C66.4803 26.5092 65.5801 26.2705 64.6214 26.2705C63.1663 26.2705 61.9472 26.7551 60.9666 27.7194C59.986 28.6861 59.4945 29.8962 59.4945 31.3475C59.4945 32.7987 59.986 34.0161 60.9666 34.9925C61.9472 35.9712 63.1663 36.4582 64.6214 36.4582" fill="white"/>
<path d="M84.4644 22.6318C85.243 22.6318 85.8903 22.721 86.411 22.8994L86.175 26.5034C85.5204 26.2792 84.8488 26.1683 84.1602 26.1683C83.4716 26.1683 82.7222 26.4287 81.9436 26.947C81.1649 27.4677 80.5615 28.1692 80.1332 29.0516V39.7624H76.2936V22.9838H80.1332V25.2812C80.5517 24.5001 81.1771 23.8613 82.0117 23.3695C82.8463 22.8777 83.6638 22.6318 84.4644 22.6318Z" fill="white"/>
<path d="M97.3362 22.6323C99.458 22.6323 101.144 23.3145 102.395 24.6766C103.648 26.041 104.273 27.878 104.273 30.1923V39.7628H100.4V30.795C100.4 29.4546 100.037 28.3915 99.3096 27.6104C98.582 26.8293 97.6136 26.4364 96.4067 26.4364C95.5381 26.4364 94.7181 26.6485 93.9443 27.0728C93.1705 27.4971 92.572 28.0685 92.1413 28.782V39.7604H88.3016V22.9818H92.1413V25.2455C92.6596 24.4403 93.3871 23.8039 94.3239 23.3338C95.2607 22.8637 96.2632 22.6299 97.3362 22.6299" fill="white"/>
<path d="M111.291 15.7275H107.451V39.7648H111.291V15.7275Z" fill="white"/>
<path d="M114.705 15.9112C115.189 15.4315 115.77 15.1904 116.447 15.1904C117.123 15.1904 117.707 15.4315 118.199 15.9112C118.69 16.391 118.934 16.9623 118.934 17.6204C118.934 18.2786 118.688 18.8836 118.199 19.3634C117.707 19.8431 117.123 20.0842 116.447 20.0842C115.77 20.0842 115.189 19.8431 114.705 19.3634C114.22 18.8836 113.977 18.3027 113.977 17.6204C113.977 16.9382 114.22 16.391 114.705 15.9112ZM114.503 22.9843H118.342V39.7628H114.503V22.9843Z" fill="white"/>
<path d="M130.589 22.6323C132.711 22.6323 134.397 23.3145 135.647 24.6766C136.901 26.041 137.526 27.878 137.526 30.1923V39.7628H133.652V30.795C133.652 29.4546 133.29 28.3915 132.562 27.6104C131.835 26.8293 130.866 26.4364 129.659 26.4364C128.791 26.4364 127.971 26.6485 127.197 27.0728C126.423 27.4971 125.825 28.0685 125.394 28.782V39.7604H121.554V22.9818H125.394V25.2455C125.912 24.4403 126.64 23.8039 127.576 23.3338C128.513 22.8637 129.516 22.6299 130.589 22.6299" fill="white"/>
<path d="M156.71 30.6282C156.71 31.2767 156.666 31.8287 156.573 32.2867H143.682C143.896 33.6488 144.446 34.7167 145.332 35.4882C146.217 36.2596 147.342 36.6453 148.707 36.6453C149.665 36.6453 150.546 36.4525 151.347 36.0667C152.147 35.681 152.746 35.1651 153.14 34.5167L156.221 36.4621C155.588 37.6024 154.605 38.4943 153.269 39.1356C151.933 39.7792 150.39 40.0999 148.641 40.0999C147.028 40.0999 145.551 39.7166 144.208 38.9524C142.864 38.1882 141.801 37.1275 141.018 35.775C140.234 34.4226 139.842 32.9256 139.842 31.2815C139.842 29.6374 140.229 28.2223 141.001 26.8988C141.772 25.5753 142.828 24.5339 144.164 23.7721C145.5 23.0127 146.969 22.6318 148.57 22.6318C150.069 22.6318 151.444 22.9838 152.69 23.6877C153.936 24.3917 154.916 25.3559 155.634 26.5782C156.349 27.8028 156.707 29.1504 156.707 30.6258M143.818 29.3553H152.651C152.549 28.3042 152.099 27.446 151.296 26.7807C150.495 26.1153 149.515 25.7826 148.351 25.7826C147.188 25.7826 146.247 26.0984 145.458 26.7301C144.668 27.3617 144.122 28.2367 143.816 29.3529" fill="white"/>
<path d="M165.167 40.151C163.79 40.151 162.425 39.9268 161.072 39.4808C159.719 39.0348 158.629 38.4418 157.807 37.7041L159.33 34.8209C159.972 35.4357 160.844 35.9395 161.943 36.33C163.043 36.723 164.077 36.9158 165.048 36.9158C165.883 36.9158 166.559 36.7399 167.078 36.3879C167.596 36.0359 167.856 35.5924 167.856 35.0548C167.856 34.6859 167.72 34.3725 167.45 34.117C167.18 33.859 166.824 33.6614 166.384 33.5215C165.944 33.3817 165.442 33.2371 164.878 33.0852C164.313 32.9357 163.734 32.7959 163.143 32.6657C162.552 32.538 161.973 32.3475 161.408 32.0968C160.844 31.8461 160.342 31.5544 159.902 31.2241C159.461 30.8939 159.106 30.4455 158.836 29.8741C158.566 29.3052 158.43 28.6495 158.43 27.9142C158.43 26.3617 159.041 25.0937 160.264 24.1101C161.488 23.1266 163.07 22.6348 165.009 22.6348C166.238 22.6348 167.421 22.8083 168.554 23.1555C169.688 23.5026 170.62 24.004 171.355 24.6646L169.832 27.6153C169.199 27.0681 168.374 26.6341 167.352 26.3159C166.331 25.9977 165.425 25.8386 164.637 25.8386C163.926 25.8386 163.357 25.9977 162.929 26.3159C162.501 26.6341 162.286 27.0681 162.286 27.6153C162.286 27.9962 162.462 28.3168 162.81 28.5796C163.16 28.8423 163.613 29.0569 164.172 29.2257C164.732 29.392 165.347 29.5583 166.026 29.7199C166.703 29.8814 167.377 30.0887 168.048 30.3394C168.72 30.5901 169.336 30.8915 169.893 31.2458C170.452 31.5978 170.905 32.0896 171.255 32.7212C171.603 33.3528 171.779 34.0881 171.779 34.9246C171.779 36.4337 171.158 37.6824 169.917 38.6708C168.676 39.6592 167.092 40.1534 165.163 40.1534" fill="white"/>
</g>
<defs>
<clipPath id="clip0_1119_788">
<rect width="164" height="27" fill="white" transform="translate(8 15)"/>
</clipPath>
</defs>
</svg>
