<svg width="180" height="56" viewBox="0 0 180 56" fill="none" xmlns="http://www.w3.org/2000/svg">
<path fill-rule="evenodd" clip-rule="evenodd" d="M76.3263 36.5545V32.9885L65.2558 32.7943L65.1715 37.6667L70.8157 37.7658L70.752 41.4549C69.3008 42.4631 67.532 42.9486 65.4454 42.9121C64.3032 42.892 63.2693 42.6722 62.3426 42.2513C61.414 41.8308 60.6112 41.2477 59.9314 40.5008C59.2528 39.755 58.733 38.8827 58.3743 37.8844C58.0146 36.8867 57.846 35.8001 57.8665 34.6248L57.8678 34.5521C57.8869 33.4507 58.092 32.4197 58.4859 31.4592C58.8783 30.4991 59.415 29.6641 60.0953 28.9533C60.7753 28.2425 61.562 27.6812 62.4559 27.2683C63.3491 26.8558 64.3062 26.6582 65.3258 26.6762C66.0545 26.6887 66.7201 26.7614 67.3259 26.8942C67.93 27.0276 68.4913 27.2075 69.0092 27.4367C69.5273 27.6659 70.0268 27.9435 70.5065 28.2689C70.9872 28.5955 71.4653 28.9705 71.9447 29.3942L75.5509 25.1696C74.9057 24.5969 74.2341 24.0843 73.5372 23.6319C72.8409 23.1799 72.0957 22.8003 71.2996 22.4932C70.5039 22.1862 69.6391 21.9456 68.7076 21.7697C67.7756 21.5951 66.7389 21.4971 65.5985 21.477C63.6556 21.4426 61.8655 21.7601 60.227 22.4273C58.5884 23.0946 57.1634 24.0224 55.9536 25.2104C54.7428 26.3982 53.7901 27.7865 53.0945 29.3744C52.3986 30.9621 52.0355 32.6718 52.0037 34.5033L52.0025 34.5773C51.9695 36.4817 52.2671 38.2464 52.894 39.8696C53.5219 41.4928 54.4142 42.9013 55.5716 44.0943C56.7277 45.2874 58.1211 46.2278 59.7475 46.9157C61.3746 47.6043 63.1828 48 65.1744 48C69.3487 48 71.8771 46.8482 71.8771 46.8482L76.3263 36.5545Z" fill="white"/>
<path fill-rule="evenodd" clip-rule="evenodd" d="M96.4387 41.8098L88.2366 22.4178H83.1536L72.4155 47.8043H78.0352L80.3263 42.1507H90.9215L93.2124 47.8043H96.4387V41.8098ZM82.2945 37.2541L85.6235 29.0801L88.9522 37.2541H82.2945Z" fill="white"/>
<path fill-rule="evenodd" clip-rule="evenodd" d="M99.9644 47.3006C99.9644 47.3006 100.407 46.8225 100.899 46.8057L101.555 46.5912C101.686 46.146 102.112 46.3107 102.112 46.3107C102.342 46.3275 102.408 45.9804 102.408 45.9804C102.441 45.2221 102.626 43.3406 102.626 43.3406C102.557 42.8423 102.42 42.643 102.42 42.643C101.864 42.1216 101.833 40.6881 101.833 40.6881C101.483 40.6881 101.155 40.4277 101.155 40.4277C101.033 40.1434 101.155 39.6149 101.155 39.6149C100.935 39.5684 100.751 39.4302 100.751 39.4302C100.751 39.4302 100.259 39.0352 99.9155 38.7052C99.9155 38.7052 100.71 36.7314 100.553 36.0601C100.512 35.8838 100.37 35.8019 100.37 35.8019C100.461 35.2494 100.277 33.6626 100.277 33.6626C99.5186 27.8485 101.414 27.4401 101.414 27.4401C101.426 27.0581 101.49 26.6451 101.56 26.1027C101.629 25.5611 101.101 25.2612 101.101 25.2612C100.435 24.8076 100.853 24.4667 100.853 24.4667C100.999 24.342 101.011 24.1153 101.011 24.1153C101.056 23.8992 101.214 24.0127 101.214 24.0127C101.09 23.7177 101.315 23.6611 101.315 23.6611C101.643 23.6152 101.676 23.4336 101.676 23.4336C101.631 23.0367 101.947 23.1273 101.947 23.1273C102.624 23.1954 102.715 22.9686 102.715 22.9686C102.998 22.644 103.29 22.4907 103.513 22.4188H97.2476V47.8046H99.4501C99.4353 47.6599 99.4822 47.4042 99.9644 47.3006Z" fill="white"/>
<path fill-rule="evenodd" clip-rule="evenodd" d="M121.559 22.4178V38.1179L109.684 22.4178H104.981C105.341 22.5684 105.767 22.8635 106.228 23.4271C106.228 23.4271 106.966 24.2353 106.638 25.1924C106.638 25.1924 106.576 25.6047 106.721 25.8029L106.721 25.8046C106.763 25.7868 106.808 25.7868 106.858 25.819C106.95 25.879 107.006 25.9416 106.957 26.0761C107.222 26.2209 108.3 26.941 107.629 28.7417C107.629 28.7417 107.627 28.5321 107.609 28.3007C107.203 29.3106 107.438 30.1719 107.438 30.1719C107.438 30.1719 107.299 30.0155 107.182 29.8146C107.072 30.4176 107.076 30.5499 107.227 31.0008C107.227 31.0008 106.681 30.7292 106.619 30.5087C106.619 30.5087 106.655 30.747 106.681 30.87C106.681 30.87 106.006 30.4085 106.067 29.6237C106.127 28.8621 107.057 27.1455 106.631 26.4478C106.576 26.4661 106.524 26.4639 106.483 26.4393C106.419 26.3998 106.385 26.3608 106.382 26.3069C106.304 26.4215 106.175 26.6769 105.965 27.2049C105.808 27.5974 105.022 28.4295 104.257 27.8649C103.303 27.1602 104.292 28.4255 104.292 28.4255C104.292 28.4255 105.276 29.944 105.227 31.9727C105.227 31.9727 105.555 33.0948 105.358 33.7546C105.358 33.7546 105.227 34.3817 105.457 35.2889C105.457 35.2889 105.801 36.1303 105.522 36.3286C105.522 36.3286 105.539 37.7345 105.243 38.8544C105.243 38.8544 104.997 40.0738 105.03 40.5189C105.03 40.5189 105.079 41.0142 104.834 40.9644C104.834 40.9644 104.522 41.0635 104.26 40.9153C104.26 40.9153 104.145 42.0367 104.423 42.6965C104.423 42.6965 104.719 43.819 104.637 44.9074C104.637 44.9074 104.375 46.7223 104.735 47.0358C104.735 47.0358 104.997 47.0524 105.096 47.6295C105.096 47.6295 105.117 47.7002 105.139 47.8038H110.177V31.7802L122.31 47.8038H127V22.4178H121.559Z" fill="white"/>
<path fill-rule="evenodd" clip-rule="evenodd" d="M100.382 17.912L99.6888 19.1846H101.075L100.382 17.912Z" fill="white"/>
<path fill-rule="evenodd" clip-rule="evenodd" d="M104.72 12.1795C104.72 9.76704 102.776 8 100.378 8V8.0086C97.9821 8.0103 96.04 9.77684 96.04 12.1881C96.04 15.3258 99.9576 17.9432 100.381 17.9432V17.9341C100.817 17.9249 104.72 15.3112 104.72 12.1795Z" fill="white"/>
</svg>
