<svg width="180" height="56" viewBox="0 0 180 56" fill="none" xmlns="http://www.w3.org/2000/svg">
<path d="M156.494 16.9202H136.703C136.046 16.9202 135.508 17.4466 135.508 18.0931V20.0441C135.508 20.6906 136.046 21.217 136.703 21.217H144.485V38.9875C144.485 39.5883 144.994 40.0746 145.617 40.0746H147.557C148.181 40.0746 148.69 39.5883 148.69 38.9875V21.217H156.471C157.129 21.217 157.667 20.6391 157.667 19.9926V18.1389C157.667 17.4923 157.157 16.9202 156.499 16.9202" fill="white"/>
<path d="M72.0063 29.2326C72.0063 32.8599 69.0541 35.8122 65.4267 35.8122H63.264C59.6367 35.8122 56.6845 32.8599 56.6845 29.2326V27.7679C56.6845 24.1406 59.6367 21.1883 63.264 21.1883H65.4267C69.0541 21.1883 72.0063 24.1406 72.0063 27.7679V29.2326ZM65.7357 16.9717H62.9494C57.2509 16.9717 52.6166 21.606 52.6166 27.3045V29.6846C52.6166 35.3831 57.2509 40.0174 62.9494 40.0174H65.7357C71.4341 40.0174 76.0685 35.3831 76.0685 29.6846V27.3045C76.0685 21.606 71.4341 16.9717 65.7357 16.9717Z" fill="white"/>
<path d="M122.669 16.9202H108.669C108.022 16.9202 107.496 17.4466 107.496 18.0931V19.9926C107.496 20.6391 108.022 21.1655 108.669 21.1655H122.72C123.436 21.1655 124.111 21.4458 124.574 21.9379C125.02 22.407 125.266 23.0249 125.255 23.6771C125.238 25.0274 124.094 26.1202 122.709 26.1202H114.465C113.538 26.1202 112.96 27.1271 113.429 27.9281L120.277 39.5368C120.466 39.8572 120.815 40.0574 121.187 40.0574H125.278C125.553 40.0746 125.81 39.737 125.656 39.4967L120.775 31.1721C120.569 30.8174 120.821 30.3711 121.233 30.3711H122.709C126.405 30.3711 129.455 27.3903 129.5 23.7286C129.523 21.915 128.837 20.2043 127.561 18.917C126.302 17.6411 124.517 16.9145 122.663 16.9145" fill="white"/>
<path d="M44.4978 26.1259H35.2063C34.5484 26.1602 34.1136 26.7152 34.1136 27.4189V29.0953C34.1136 29.7933 34.5941 30.3425 35.2063 30.3425H41.3511C41.0135 32.2992 39.8178 33.9642 38.1643 34.9196C38.1586 34.9196 38.1471 34.9311 38.1414 34.9311C37.163 35.4918 36.0474 35.8007 34.8745 35.8007H33.0551C29.4163 35.8007 26.4698 32.8542 26.4698 29.2154V27.7679C26.4698 24.1291 29.4163 21.1826 33.0551 21.1826H34.8745C36.6481 21.1826 38.313 21.8806 39.5546 23.1451C39.7205 23.3167 39.9551 23.414 40.2011 23.414H43.817C43.817 23.414 43.857 23.414 43.8799 23.414C44.2404 23.3625 44.3491 23.1737 44.3491 23.1737C44.4406 23.0306 44.4807 22.859 44.475 22.7217C44.4692 22.6244 44.4406 22.5329 44.3949 22.447C42.5869 19.0142 39.0911 16.8916 35.1949 16.8916H32.7461C26.9962 16.8916 22.3333 21.5545 22.3333 27.3045V29.6846C22.3333 35.4346 26.9962 40.0975 32.7461 40.0975H35.1949C35.4981 40.0975 35.7956 40.086 36.0931 40.0574C36.2247 40.046 36.3506 40.0345 36.4822 40.0174C36.4994 40.0174 36.5165 40.0174 36.5337 40.0174C36.6252 40.0059 36.7168 39.9888 36.8083 39.9773C36.8598 39.9716 36.917 39.9602 36.9685 39.9544C37.0315 39.943 37.0887 39.9316 37.1459 39.9201C37.2317 39.903 37.3118 39.8915 37.3976 39.8743C37.4548 39.8629 37.5178 39.8457 37.575 39.8343C37.6551 39.8171 37.7409 39.8 37.821 39.7771C37.8839 39.7599 37.9469 39.7428 38.0098 39.7256C38.0842 39.7027 38.1643 39.6855 38.2387 39.6626C38.3073 39.6398 38.3817 39.6169 38.4504 39.594C38.519 39.5711 38.5819 39.554 38.6506 39.5311C38.7421 39.4967 38.8337 39.4624 38.9252 39.4281C38.9653 39.4109 39.011 39.3995 39.0511 39.3823C39.1197 39.3537 39.1884 39.3251 39.2628 39.2965C39.3257 39.2679 39.3887 39.245 39.4516 39.2164C39.4974 39.1935 39.5489 39.1706 39.5946 39.1477C39.6747 39.1077 39.7605 39.0733 39.8406 39.0333C39.8864 39.0104 39.9322 38.9875 39.978 38.9646C40.0581 38.9246 40.1382 38.8845 40.2183 38.8388C40.2812 38.8044 40.3441 38.7701 40.4013 38.7301C40.4643 38.6957 40.5272 38.6614 40.5844 38.6271C40.6588 38.5813 40.7275 38.5355 40.7961 38.4955C40.8476 38.4669 40.8934 38.4326 40.9449 38.404C41.0078 38.3639 41.0707 38.3181 41.1337 38.2724C41.1852 38.238 41.2424 38.198 41.2939 38.1637C41.3511 38.1236 41.4083 38.0778 41.4655 38.0378C41.5227 37.9977 41.5799 37.952 41.6372 37.9119C41.6944 37.8661 41.7459 37.8204 41.8031 37.7746C41.8603 37.7288 41.9118 37.683 41.969 37.6373C42.0262 37.5858 42.0834 37.5343 42.1406 37.4828C42.1921 37.437 42.2379 37.397 42.2894 37.3512C42.3409 37.3054 42.3867 37.2539 42.4381 37.2082C42.4896 37.1567 42.5469 37.1052 42.5983 37.0537C42.6384 37.0137 42.6784 36.9679 42.7242 36.9221C42.7814 36.8649 42.8386 36.802 42.8959 36.7447C42.9416 36.6933 42.9874 36.6418 43.0332 36.5903C43.0847 36.5331 43.1304 36.4816 43.1819 36.4243C43.2277 36.3729 43.2677 36.3157 43.3135 36.2584C43.3593 36.2012 43.4051 36.144 43.4508 36.0868C43.4966 36.0296 43.5366 35.9724 43.5767 35.9152C43.6167 35.8579 43.6625 35.8007 43.7026 35.7435C43.7426 35.6863 43.7827 35.6234 43.8227 35.5604C43.8628 35.5032 43.9028 35.446 43.9429 35.3831C43.9829 35.3201 44.0172 35.2572 44.0573 35.1943C44.0916 35.137 44.1317 35.0741 44.166 35.0169C44.2003 34.954 44.2347 34.8967 44.269 34.8338C44.3033 34.7709 44.3434 34.7022 44.3777 34.6393C44.412 34.5763 44.4406 34.5134 44.4692 34.4562C44.5036 34.3875 44.5379 34.3189 44.5722 34.2502C44.6065 34.1816 44.6352 34.1129 44.6695 34.0443C44.6866 34.0099 44.6981 33.9813 44.7153 33.947C44.7324 33.9127 44.7439 33.8841 44.761 33.8497C44.7896 33.7811 44.8182 33.7067 44.8468 33.638C44.8755 33.5751 44.8983 33.5065 44.9269 33.4435C44.9498 33.392 44.967 33.3348 44.9842 33.2833C44.9842 33.2833 44.9842 33.2776 44.9842 33.2719C44.9842 33.2662 44.9899 33.2547 44.9956 33.249C44.9956 33.2433 44.9956 33.2376 45.0013 33.2318C45.0242 33.1632 45.0528 33.0945 45.0757 33.0259C45.0986 32.9572 45.1215 32.8828 45.1444 32.8085C45.1558 32.7741 45.1672 32.7398 45.1787 32.7055C45.1787 32.694 45.1844 32.6826 45.1901 32.6711C45.1958 32.6482 45.2073 32.6196 45.213 32.5968C45.213 32.5796 45.2187 32.5682 45.2245 32.551C45.2302 32.5224 45.2416 32.4938 45.2473 32.4652C45.2588 32.4194 45.2702 32.3736 45.2817 32.3278C45.2931 32.2764 45.3103 32.2249 45.3217 32.1734C45.3217 32.1734 45.3217 32.1677 45.3217 32.1619C45.3217 32.1619 45.3217 32.1505 45.3217 32.1448C45.3217 32.1448 45.3217 32.1448 45.3217 32.139C45.5105 31.3552 45.6135 30.5428 45.6135 29.7075V27.4246C45.6135 26.7839 45.1444 26.1831 44.5207 26.143" fill="white"/>
<path d="M100.905 39.6798C101.031 39.8915 101.26 40.0231 101.506 40.0231H105.848C106.094 40.0288 106.249 39.7599 106.123 39.5482L93.2668 17.1948C93.1009 16.9088 92.6833 16.9088 92.5116 17.1948L90.5263 20.7707C90.3547 21.0682 90.3547 21.4401 90.5263 21.7319L100.899 39.6741L100.905 39.6798Z" fill="white"/>
<path d="M80.0562 40.0345L84.393 40.0231C84.5818 40.0231 84.7592 39.9201 84.8565 39.7542C87.2537 35.6863 88.4552 33.5007 90.8524 29.4328C91.047 29.101 91.047 28.6948 90.8524 28.3629L88.8385 24.9244C88.6726 24.6441 88.2664 24.6441 88.1005 24.9244L79.7187 39.451C79.5699 39.7084 79.753 40.0345 80.0562 40.0345Z" fill="white"/>
</svg>
