<svg width="180" height="56" viewBox="0 0 180 56" fill="none" xmlns="http://www.w3.org/2000/svg">
<g clip-path="url(#clip0_1119_655)">
<path d="M144 12.513C143.369 12.513 142.74 12.5185 142.11 12.5185C138.376 12.5185 134.641 12.5185 130.907 12.5185H130.623V21.4903H141.585V26.0563H130.606V35.0595C130.497 35.065 130.417 35.0724 130.335 35.0724C129.03 35.0724 127.723 35.0687 126.418 35.0779C126.196 35.0779 126.138 35.0116 126.14 34.7923C126.151 33.742 126.145 32.6917 126.145 31.6414C126.143 28.4057 126.136 25.17 126.136 21.9344C126.136 17.3867 126.141 12.8391 126.145 8.29331C126.145 8.21039 126.145 8.12563 126.145 8.00586H144V12.5148V12.513Z" fill="white"/>
<path d="M81.205 8.00553C83.2097 7.96684 85.0796 8.35932 86.8547 9.19772C88.4275 9.9403 89.7761 10.9943 90.9753 12.2528C92.5207 13.878 93.6506 15.7483 94.232 17.9374C94.7168 19.7597 94.8024 21.6079 94.5601 23.4763C94.3341 25.2176 93.7746 26.8391 92.8779 28.3409C92.0141 29.7874 90.8914 31.0072 89.6139 32.0796C88.2452 33.2294 86.7089 34.0752 84.9903 34.5616C83.0402 35.1144 81.061 35.2103 79.0618 34.8988C75.929 34.4105 73.3903 32.8498 71.2799 30.5097C70.1135 29.2143 69.2004 27.7605 68.619 26.1076C67.85 23.9186 67.6805 21.6705 68.0213 19.3783C68.5516 15.8128 70.3905 13.0359 73.1114 10.8008C74.5074 9.65469 76.0857 8.86052 77.828 8.40723C78.9506 8.11609 80.0915 7.97789 81.205 8.00738V8.00553ZM81.2597 30.5244C86.1384 30.6331 90.2007 26.4522 90.1825 21.501C90.1661 16.6457 86.1421 12.52 81.2797 12.5034C76.35 12.4868 72.3241 16.6088 72.3296 21.5231C72.3369 26.5167 76.3336 30.6184 81.2579 30.5226L81.2597 30.5244Z" fill="white"/>
<path d="M110.322 8.00335C112.526 7.96649 114.587 8.45111 116.511 9.49404C118.31 10.4688 119.796 11.8176 121.055 13.4299C121.999 14.6387 122.712 15.9746 123.162 17.4469C123.834 19.6488 123.938 21.8858 123.523 24.1504C123.023 26.8793 121.711 29.155 119.765 31.0879C118.531 32.3133 117.158 33.3323 115.564 34.0214C113.424 34.9464 111.19 35.221 108.883 34.9943C107.2 34.8285 105.613 34.3568 104.126 33.546C102.517 32.6689 101.155 31.4859 99.9799 30.08C98.9265 28.8196 98.121 27.4174 97.6016 25.8511C97.0074 24.0601 96.8398 22.2175 96.9819 20.3398C97.0913 18.897 97.4266 17.515 97.9952 16.1883C98.6805 14.5926 99.6701 13.2106 100.877 11.9816C102.001 10.8355 103.266 9.88284 104.718 9.19738C106.501 8.35898 108.378 7.96649 110.322 8.00335ZM119.232 21.731C119.424 16.7504 115.305 12.6173 110.557 12.5086C105.517 12.3907 101.56 16.4813 101.411 21.1801C101.241 26.4666 105.385 30.5001 110.244 30.548C115.172 30.5959 119.238 26.5016 119.232 21.731Z" fill="white"/>
<path d="M52.7143 21.5122C53.3322 21.5122 53.9081 21.5122 54.4821 21.5122C55.1874 21.514 55.8945 21.5029 56.5998 21.5269C59.1221 21.6117 61.5351 19.2457 61.0922 16.3122C60.899 15.0316 60.1992 14.0716 59.1877 13.3235C58.4205 12.7559 57.5475 12.5164 56.6035 12.5182C53.673 12.5182 50.7442 12.5182 47.8137 12.5219C47.6205 12.5219 47.5021 12.4814 47.3982 12.2971C46.6091 10.9004 45.8054 9.51289 45.0071 8.1217C44.9925 8.0959 44.9852 8.06826 44.9634 8.01667C45.0509 8.01114 45.1238 8.00377 45.1948 8.00377C49.073 8.00377 52.9513 7.9964 56.8295 8.00561C59.8402 8.01298 62.1748 9.36548 63.9389 11.7683C65.4479 13.8228 65.8616 16.1556 65.4552 18.6395C65.1071 20.7659 64.0082 22.4814 62.439 23.9039C61.7848 24.4972 61.0412 24.9542 60.232 25.2969C60.1992 25.3117 60.1664 25.3319 60.1117 25.3614C61.9342 28.586 63.7512 31.8014 65.5901 35.0537C65.4807 35.0611 65.4024 35.0721 65.3258 35.0721C63.7858 35.0721 62.244 35.0703 60.704 35.0777C60.5291 35.0777 60.4361 35.0187 60.3487 34.8658C58.7941 32.1386 57.2341 29.4152 55.674 26.69C54.73 25.039 53.7823 23.3898 52.8364 21.7388C52.8 21.6743 52.7672 21.608 52.7143 21.5103V21.5122Z" fill="white"/>
<path d="M35.7217 8.00374C36.6949 8.00374 37.628 8.00374 38.5611 8.00374C39.0841 8.00374 39.609 8.00927 40.1321 8.00006C40.2779 7.99822 40.3617 8.03875 40.4382 8.17327C41.7705 10.5429 43.11 12.9088 44.4458 15.2766C45.7598 17.6039 47.072 19.933 48.386 22.2602C49.6216 24.4475 50.8591 26.6347 52.0947 28.8219C53.4087 31.1491 54.7209 33.4782 56.0349 35.8055C57.2669 37.9872 58.5007 40.167 59.7327 42.3468C60.7587 44.1618 61.783 45.9787 62.8072 47.7937C62.8364 47.8453 62.8601 47.9006 62.8983 47.9798C62.8036 47.9853 62.7325 47.9945 62.6614 47.9945C61.28 47.9945 59.8985 47.9945 58.5171 47.9982C58.3549 47.9982 58.2638 47.9503 58.18 47.8011C56.8477 45.4314 55.5082 43.0655 54.1705 40.6977C52.5777 37.8784 50.9885 35.0574 49.3957 32.2381C48.0744 29.898 46.7494 27.5578 45.4281 25.2177C44.1251 22.9107 42.8238 20.6019 41.5208 18.293C40.2779 16.0911 39.0331 13.891 37.7902 11.6909C37.1414 10.5411 36.4908 9.39125 35.842 8.24145C35.8055 8.17695 35.7745 8.10878 35.7217 8.00374Z" fill="white"/>
<path d="M40.0263 43.9478C40.7772 43.9478 41.4661 43.9478 42.155 43.9478C44.9561 43.9441 47.7554 43.9404 50.5566 43.9441C50.644 43.9441 50.7716 43.9994 50.8117 44.0694C51.5443 45.3132 52.2642 46.5643 52.9877 47.8118C53.0132 47.856 53.0351 47.9058 53.0716 47.9795C52.9804 47.985 52.9094 47.9942 52.8383 47.9942C47.5258 47.9942 42.2133 47.9942 36.9008 47.9979C36.7368 47.9979 36.642 47.95 36.5564 47.8063C36.0625 46.9808 35.5595 46.1608 35.0546 45.3408C34.989 45.234 34.9745 45.1492 35.0346 45.0276C36.1682 42.7243 37.2963 40.4191 38.4226 38.1122C39.6546 35.5933 40.8829 33.0725 42.1131 30.5537C42.2643 30.2459 42.4174 29.9382 42.5869 29.5918C42.8439 30.0359 43.0826 30.4468 43.3195 30.8595C43.859 31.8011 44.3984 32.7409 44.9288 33.6861C44.9707 33.7617 44.9762 33.8962 44.9379 33.9736C43.4107 37.0784 41.8761 40.1796 40.3435 43.2826C40.2432 43.4853 40.1448 43.6898 40.0191 43.946L40.0263 43.9478Z" fill="white"/>
<path d="M94.5089 43.7955C95.0939 44.4478 95.3965 45.2788 95.832 46.0288C96.1236 46.53 96.3842 47.0496 96.6576 47.5619C96.6922 47.6264 96.7196 47.6964 96.7615 47.7867C96.1491 47.7867 95.5696 47.7996 94.9882 47.7793C94.775 47.7719 94.6237 47.6208 94.5253 47.4181C94.1408 46.6203 93.749 45.8243 93.3589 45.0282C93.122 44.5455 93.0327 44.4994 92.4586 44.5657C92.4532 44.6486 92.4422 44.7371 92.4422 44.8255C92.4422 45.7229 92.4313 46.6203 92.4477 47.5176C92.4514 47.7609 92.3748 47.8125 92.1525 47.8051C91.7133 47.7885 91.2722 47.794 90.833 47.8051C90.6726 47.8088 90.6252 47.7553 90.6252 47.595C90.6307 46.7511 90.6289 45.9072 90.6289 45.0651C90.6289 42.6273 90.6289 40.1876 90.6289 37.7498C90.6289 37.5496 90.7279 37.4488 90.926 37.4476C91.3433 37.4476 91.7606 37.4587 92.178 37.4439C92.3857 37.4366 92.4477 37.4992 92.4477 37.713C92.4404 39.469 92.4422 41.225 92.4459 42.9811C92.4459 43.0953 92.4823 43.3109 92.5024 43.3109C92.6773 43.3109 92.8578 43.2906 93.0236 43.239C93.0947 43.2169 93.1494 43.1119 93.1967 43.0345C93.5868 42.3951 93.9804 41.7594 94.3577 41.1126C94.5454 40.7902 94.7969 40.6299 95.1741 40.6409C95.6644 40.6557 96.1564 40.6446 96.7032 40.6446C96.5009 40.9615 96.3277 41.2342 96.1528 41.5051C95.7919 42.0616 95.4384 42.6254 95.0611 43.1727C94.908 43.3957 94.7039 43.5818 94.5126 43.7974L94.5089 43.7955Z" fill="white"/>
<path d="M83 47.7902C82.6555 47.7902 82.3293 47.7994 82.0067 47.7865C81.8081 47.7791 81.6677 47.6649 81.5985 47.4733C81.5383 47.3093 81.4782 47.1453 81.4126 46.9647C81.2121 47.1158 81.0317 47.2687 80.8367 47.3977C79.971 47.9745 79.0325 48.1034 78.0884 47.6796C76.851 47.125 76.707 45.3782 77.7968 44.5637C78.4566 44.0717 79.2275 43.8783 80.0221 43.7677C80.3592 43.7198 80.7018 43.7069 81.0426 43.6903C81.1866 43.6829 81.2504 43.6332 81.2376 43.4821C81.2212 43.2757 81.2285 43.0675 81.1975 42.863C81.1101 42.2825 80.7547 41.9748 80.1733 41.9601C79.8034 41.9509 79.4498 42.0227 79.1218 42.2033C79.0088 42.266 78.8939 42.3231 78.7791 42.3857C78.2178 42.6898 77.9463 42.6105 77.6273 42.0485C77.3868 41.6247 77.3813 41.6174 77.7859 41.3262C78.7664 40.6186 79.8562 40.3607 81.039 40.5818C82.0578 40.7716 82.8031 41.6045 82.9599 42.6842C82.9872 42.874 83.0073 43.0657 83.0073 43.2555C83.0109 44.7038 83.0109 46.1521 83.0091 47.6004C83.0091 47.6538 83.0036 47.7054 82.9981 47.7883L83 47.7902ZM81.2358 44.7554C80.7328 44.8291 80.2736 44.8751 79.8252 44.9728C79.581 45.0262 79.3368 45.1386 79.1236 45.275C78.8393 45.4574 78.7718 45.7522 78.832 46.0839C78.8939 46.4211 79.1218 46.5833 79.4261 46.6312C80.1059 46.738 80.68 46.5114 81.152 46.0157C81.1921 45.9752 81.2304 45.9125 81.2322 45.8591C81.2395 45.5164 81.2358 45.1736 81.2358 44.7535V44.7554Z" fill="white"/>
<path d="M97.1151 47.034C97.2773 46.7705 97.4195 46.5089 97.5926 46.2693C97.7548 46.0427 98.0391 46.0316 98.3343 46.1809C98.6369 46.3338 98.9394 46.5181 99.262 46.5881C99.5189 46.6434 99.8196 46.5881 100.082 46.5125C100.352 46.437 100.474 46.1919 100.503 45.9118C100.532 45.6299 100.427 45.4033 100.173 45.2854C99.796 45.1103 99.4078 44.9555 99.0178 44.8136C98.4291 44.598 97.8733 44.3382 97.5525 43.7578C97.0969 42.9323 97.1862 41.3384 98.6587 40.7654C99.8178 40.3158 100.939 40.4521 101.948 41.2315C102.019 41.2868 102.092 41.3421 102.165 41.3974C102.016 41.6406 101.897 41.8451 101.768 42.0423C101.584 42.3242 101.4 42.3666 101.09 42.2247C100.849 42.1142 100.611 41.9686 100.355 41.9262C100.073 41.8802 99.7686 41.8967 99.4861 41.9539C99.2091 42.011 99.0706 42.2487 99.0469 42.5343C99.025 42.8107 99.1599 43.0226 99.395 43.1295C99.816 43.3211 100.25 43.4814 100.68 43.6472C101.154 43.8297 101.598 44.0489 101.908 44.4783C102.455 45.2301 102.287 46.859 101.115 47.5149C100.002 48.1378 98.3653 48.0088 97.2828 47.1833C97.2281 47.1427 97.1807 47.093 97.1133 47.034H97.1151Z" fill="white"/>
<path d="M68.721 47.9189C67.9228 47.9023 67.1993 47.6701 66.5432 47.2095C66.3846 47.0971 66.3354 46.9939 66.463 46.8225C66.5723 46.6769 66.6525 46.5093 66.7546 46.3563C66.9478 46.0633 67.2138 46.0062 67.5255 46.161C67.8426 46.3176 68.1579 46.4945 68.495 46.5922C68.7064 46.653 68.9616 46.6106 69.1876 46.5645C69.501 46.5 69.6778 46.2734 69.7252 45.9546C69.7708 45.6469 69.6614 45.4 69.3807 45.271C69.009 45.1015 68.6281 44.9541 68.2435 44.8122C67.7478 44.6279 67.2703 44.4179 66.9332 43.983C66.2297 43.0764 66.5122 41.5839 67.5072 40.9555C68.5843 40.2756 70.2883 40.4249 71.236 41.278C71.3435 41.3738 71.3782 41.4567 71.287 41.5857C71.1905 41.7221 71.1103 41.8713 71.0228 42.0151C70.8387 42.3173 70.6382 42.3725 70.312 42.2233C70.0769 42.1164 69.8455 41.9745 69.5994 41.9321C69.3243 41.8842 69.0272 41.8934 68.752 41.945C68.4677 41.9985 68.3073 42.2196 68.28 42.5218C68.2508 42.8221 68.4003 43.034 68.6499 43.1483C69.0363 43.3252 69.4354 43.4689 69.8327 43.62C70.3047 43.8006 70.764 43.9977 71.0866 44.4142C71.5057 44.9541 71.5003 45.5714 71.3472 46.1905C71.1267 47.0842 70.343 47.7365 69.4026 47.8525C69.1766 47.8802 68.9506 47.8986 68.7247 47.9226L68.721 47.9189Z" fill="white"/>
<path d="M76.4866 47.2777C75.8214 47.8028 75.0833 47.9724 74.2742 47.8747C73.7256 47.8084 73.2882 47.5504 73.0312 47.0566C72.9037 46.8115 72.8144 46.5277 72.7852 46.2532C72.7396 45.8275 72.756 45.3964 72.756 44.967C72.7524 44.077 72.756 43.1889 72.756 42.2989C72.756 42.2086 72.756 42.1183 72.756 41.9967C72.5519 41.9967 72.3733 41.9985 72.1947 41.9967C71.8977 41.993 71.7883 41.8806 71.7755 41.5766C71.7719 41.5084 71.7755 41.4384 71.7755 41.3702C71.7755 41.0397 71.9335 40.8444 72.2494 40.7842C72.849 40.6681 72.8472 40.6681 72.9674 40.0638C73.0495 39.651 73.1424 39.2401 73.2208 38.8274C73.259 38.6247 73.372 38.5067 73.5707 38.4975C73.8586 38.4846 74.1466 38.492 74.4345 38.4883C74.5821 38.4865 74.5803 38.5841 74.5803 38.691C74.5803 39.2659 74.5803 39.8408 74.5803 40.4157C74.5803 40.4968 74.5803 40.5797 74.5803 40.6884C75.0906 40.6884 75.5736 40.6995 76.0565 40.6829C76.2716 40.6755 76.3335 40.7455 76.3226 40.9556C76.308 41.2375 76.3117 41.5231 76.3226 41.8069C76.3281 41.958 76.2752 42.0059 76.1258 42.0041C75.6939 41.9948 75.2601 42.0004 74.8282 42.0022C74.7535 42.0022 74.6806 42.0096 74.5931 42.0133C74.5894 42.1017 74.5821 42.1754 74.5821 42.2491C74.5821 43.3916 74.5821 44.534 74.5821 45.6746C74.5821 45.728 74.5821 45.7815 74.584 45.8349C74.6077 46.3895 75.0013 46.607 75.477 46.3269C75.7339 46.1758 75.8105 46.1924 75.9745 46.4522C76.144 46.7231 76.3135 46.9939 76.4921 47.2814L76.4866 47.2777Z" fill="white"/>
<path d="M89.7067 46.7286C89.2857 47.2648 88.739 47.6149 88.092 47.7808C87.405 47.9558 86.7142 47.9853 86.0399 47.6923C85.3401 47.3901 84.8499 46.8687 84.5528 46.1795C83.9897 44.8694 83.9696 43.5317 84.5656 42.2344C85.1251 41.0183 86.2659 40.425 87.6036 40.5355C88.3454 40.5963 88.9796 40.8746 89.5154 41.3942C89.6284 41.5048 89.6594 41.5895 89.5482 41.7203C89.4243 41.8641 89.3222 42.0281 89.2056 42.1773C88.9668 42.4813 88.7937 42.5053 88.4638 42.2916C88.3435 42.2123 88.2251 42.1239 88.0957 42.0631C87.2829 41.6853 86.4955 42.0023 86.204 42.8959C85.8978 43.8357 85.896 44.8031 86.2914 45.7281C86.645 46.5554 87.5453 46.7765 88.2633 46.2403C88.3672 46.1629 88.462 46.0745 88.564 45.9934C88.7882 45.8184 89.0233 45.8405 89.2019 46.0598C89.3422 46.2311 89.4771 46.4062 89.612 46.5812C89.6448 46.6236 89.6703 46.6697 89.7049 46.7249L89.7067 46.7286Z" fill="white"/>
</g>
<defs>
<clipPath id="clip0_1119_655">
<rect width="109" height="40" fill="white" transform="translate(35 8)"/>
</clipPath>
</defs>
</svg>
