<svg width="180" height="56" viewBox="0 0 180 56" fill="none" xmlns="http://www.w3.org/2000/svg">
<path d="M75.0274 37.5895H69.7921C68.579 37.5895 67.4932 37.0219 66.7273 36.1381L58.8102 26.0438L66.7273 15.9495C67.4302 15.0034 68.579 14.498 69.7921 14.498H75.0274C74.1972 14.498 72.7285 16.0752 72.7285 16.0752L64.5569 26.0438L72.7285 36.0123C72.7285 36.0123 74.1972 37.5895 75.0274 37.5895ZM115.376 26.0438C115.376 32.6052 110.268 37.5895 103.501 37.5895C99.3519 37.5895 95.7757 35.6974 93.6695 32.6687C91.5621 35.6974 88.0513 37.5895 83.8376 37.5895C77.1336 37.5895 71.9626 32.6052 71.9626 26.0438C71.9626 19.4823 77.0706 14.498 83.8376 14.498C88.0513 14.498 91.5633 16.3901 93.6695 19.4188C95.7769 16.3901 99.2877 14.498 103.501 14.498C110.268 14.498 115.376 19.4823 115.376 26.0438ZM91.3718 26.0438C91.3718 21.8163 88.1798 18.5997 83.9019 18.5997C79.624 18.5997 76.4319 21.8176 76.4319 26.0438C76.4319 30.27 79.624 33.4878 83.9019 33.4878C88.1798 33.4878 91.3718 30.27 91.3718 26.0438ZM110.971 26.0438C110.971 21.8163 107.779 18.5997 103.501 18.5997C99.2235 18.5997 96.0314 21.8176 96.0314 26.0438C96.0314 30.27 99.2235 33.4878 103.501 33.4878C107.779 33.4878 110.971 30.27 110.971 26.0438ZM135.999 22.384C135.999 26.8629 132.487 30.2077 127.89 30.2077H121.633V35.0663C121.633 36.4542 120.484 37.5895 119.08 37.5895H117.101V14.5615H127.827C132.424 14.5615 135.936 17.9686 135.936 22.4475L136 22.384H135.999ZM131.465 22.384C131.465 20.3014 129.933 18.7877 127.89 18.7877H121.698V25.9803H127.89C129.998 25.9803 131.465 24.4666 131.465 22.384Z" fill="white"/>
<path d="M56.0023 14.498H53.2574V23.6462H45.7875C44.7659 23.6462 44 24.4666 44 25.4126V28.4413H53.2574V37.5895H56.0023C57.1512 37.5895 58.1098 36.6435 58.1098 35.5069V16.5794C58.1098 15.4441 57.1524 14.4968 56.0023 14.4968V14.498Z" fill="white"/>
<path d="M55.5551 9.38798H54.725V11.5328H54.0863V9.38798H53.2562V8.82034H55.4909V9.38798H55.5551Z" fill="white"/>
<path d="M58.8114 11.0287H57.5983L57.4069 11.5963H56.7682L57.917 8.88382H58.5557L59.7045 11.5963H59.0659L58.8102 11.0287H58.8114ZM57.7898 10.461H58.5557L58.1728 9.51494L57.7898 10.461Z" fill="white"/>
<path d="M61.9405 11.5963H61.3018V8.88382H62.5791C63.282 8.88382 63.665 9.26225 63.665 9.82989C63.665 10.2718 63.4093 10.5868 62.9621 10.7137L63.665 11.6598H62.9621L62.3234 10.776H61.9405V11.6598V11.5963ZM62.5149 10.1448C62.8336 10.1448 62.9621 10.0191 62.9621 9.76641C62.9621 9.51372 62.7706 9.38798 62.5149 9.38798H61.9405V10.1448H62.5149Z" fill="white"/>
<path d="M66.0899 11.5963H65.4512V8.88382H66.0899V11.5963Z" fill="white"/>
<path d="M68.579 9.89215V11.5951H67.9404V8.81912H68.579L69.5364 10.3963L70.4938 8.81912H71.1324V11.5316H70.4938V9.82867L69.7909 11.0274H69.3437L68.6408 9.82867L68.5766 9.89215H68.579Z" fill="white"/>
<path d="M76.5604 10.0191L77.7735 11.5328H77.0076L76.1775 10.4598L75.8587 10.8382V11.5328H75.2201V8.82034H75.8587V10.0191L77.0076 8.82034H77.7735L76.6246 10.0191H76.5604Z" fill="white"/>
<path d="M80.0082 11.5963H79.3695V8.88382H80.6468C81.3497 8.88382 81.7327 9.26225 81.7327 9.82989C81.7327 10.3975 81.4769 10.5868 81.0298 10.7137L81.7327 11.6598H81.0298L80.3911 10.776H80.0082V11.6598V11.5963ZM80.5826 10.1448C80.9013 10.1448 81.0298 10.0191 81.0298 9.76641C81.0298 9.51372 80.8383 9.38798 80.5826 9.38798H80.0082V10.1448H80.5826Z" fill="white"/>
<path d="M83.5189 11.5963V8.82034H85.5621V9.38798H84.0933V9.89215H85.4337V10.4598H84.0933V10.964H85.5621V11.5316H83.4547L83.5189 11.5951V11.5963Z" fill="white"/>
<path d="M88.4985 11.5963H87.4126V8.88382H88.4985C89.3286 8.88382 89.903 9.51494 89.903 10.2718C89.903 11.0287 89.3286 11.6598 88.4985 11.6598V11.5963ZM88.4355 11.0287C88.9457 11.0287 89.2656 10.7137 89.2656 10.2083C89.2656 9.76641 88.9469 9.38798 88.4355 9.38798H88.0525V10.9652H88.4355V11.0287Z" fill="white"/>
<path d="M92.0735 8C92.2649 8 92.3922 8.12574 92.3922 8.31495C92.3922 8.50417 92.2649 8.6299 92.0735 8.6299C91.882 8.6299 91.7548 8.50417 91.7548 8.31495C91.7548 8.12574 91.882 8 92.0735 8ZM92.3934 11.5963H91.7548V8.88382H92.3934V11.5963Z" fill="white"/>
<path d="M55.8751 47.9988L56.4495 46.4851C54.662 46.2958 53.3217 44.8444 53.3217 43.0145C53.3217 41.1846 54.8535 39.5439 56.8967 39.5439C58.9399 39.5439 59.8973 40.5535 60.153 41.9415H59.0671C58.8756 41.1211 58.1098 40.49 56.8967 40.49C55.6836 40.49 54.4063 41.563 54.4063 43.0133C54.4063 44.4635 55.4279 45.5365 56.8967 45.5365C58.3655 45.5365 58.8756 44.9054 59.0671 44.0851H60.153C59.8973 45.4096 58.8126 46.3569 57.3439 46.4826L56.8967 47.9963H55.8751V47.9988Z" fill="white"/>
<path d="M61.7478 40.2385C62.0665 40.2385 62.3222 40.4912 62.3222 40.8062C62.3222 41.1211 62.0665 41.3738 61.7478 41.3738C61.429 41.3738 61.1733 41.1211 61.1733 40.8062C61.1733 40.4912 61.429 40.2385 61.7478 40.2385ZM62.2592 46.4216H61.3018V42.1942H62.2592V46.4216Z" fill="white"/>
<path d="M63.9194 42.1954V41.5008C63.9194 40.2385 64.4296 39.6086 65.5155 39.6086C66.6013 39.6086 66.0899 39.6086 66.2814 39.7344V40.4912H65.7069C65.0683 40.4912 64.8126 40.8697 64.8126 41.6265V42.1942H66.1529V43.0145H64.8126V46.4216H63.8552V43.0145H63.0893V42.1942H63.9194V42.1954Z" fill="white"/>
<path d="M67.4944 42.1954V40.8709H68.3888V42.1954H69.8576V43.0157H68.3888V44.8456C68.3888 45.4767 68.6445 45.6025 69.2189 45.6025C69.7934 45.6025 69.7291 45.6025 69.9218 45.4767V46.2971C69.7304 46.3605 69.3474 46.4228 69.0275 46.4228C68.0701 46.4228 67.4957 46.0444 67.4957 44.9713V42.9522H66.7298V42.1319H67.5599L67.4957 42.1954H67.4944Z" fill="white"/>
<path d="M71.8353 47.9365L72.4097 46.4228C71.3239 46.2336 70.558 45.3498 70.558 44.278C70.558 43.2061 71.5154 42.0696 72.7927 42.0696C74.07 42.0696 74.7717 42.89 74.9001 43.7103H73.9428C73.8155 43.2684 73.4956 42.9535 72.7939 42.9535C72.0923 42.9535 71.5166 43.5211 71.5166 44.3414C71.5166 45.1618 72.0268 45.7294 72.7939 45.7294C73.5611 45.7294 73.8155 45.351 73.9428 44.9091H74.9001C74.8359 45.6659 74.2615 46.3605 73.2399 46.4863L72.7927 48H71.8353V47.9365Z" fill="white"/>
<path d="M76.3689 40.2385C76.6876 40.2385 76.9433 40.4912 76.9433 40.8062C76.9433 41.1211 76.6876 41.3738 76.3689 41.3738C76.0502 41.3738 75.7945 41.1211 75.7945 40.8062C75.7945 40.4912 76.0502 40.2385 76.3689 40.2385ZM76.8149 46.4216H75.8575V42.1942H76.8149V46.4216Z" fill="white"/>
<path d="M81.5399 41.4373V46.4216H80.5183V39.7344H81.5399L84.1576 44.151L86.7752 39.7344H87.7326V46.4216H86.711V41.4373L84.4763 45.1593H83.7104L81.4757 41.3738L81.5399 41.4373Z" fill="white"/>
<path d="M91.1803 42.0684C91.819 42.0684 92.2662 42.3211 92.6491 42.6995V42.1319H93.5435V46.3593H92.6491V45.7917C92.3304 46.1701 91.819 46.4228 91.1803 46.4228C89.9673 46.4228 89.0729 45.4767 89.0729 44.2145C89.0729 42.9522 89.9673 42.0062 91.1803 42.0062V42.0696V42.0684ZM91.3076 45.6647C92.0105 45.6647 92.5849 45.0971 92.5849 44.2767C92.5849 43.4564 92.0105 42.8888 91.3076 42.8888C90.6047 42.8888 90.0303 43.4564 90.0303 44.2767C90.0303 45.0971 90.5404 45.6647 91.3076 45.6647Z" fill="white"/>
<path d="M97.4372 43.0145H97.0543C96.1599 43.0145 95.7139 43.5821 95.7139 44.4025V46.3581H94.7566V42.1307H95.6509V42.8253C95.9067 42.3834 96.3538 42.0684 97.0555 42.0684C97.7571 42.0684 97.3112 42.0684 97.3742 42.0684V42.9522L97.4384 43.0157L97.4372 43.0145Z" fill="white"/>
<path d="M100.501 43.9618L102.48 46.4228H101.394L99.9251 44.5307L99.3507 45.0348V46.4228H98.3933V39.7356H99.3507V44.0253L101.265 42.2589H102.479L100.564 44.0253L100.5 43.9618H100.501Z" fill="white"/>
<path d="M102.672 44.2767C102.672 43.0145 103.567 42.0684 104.843 42.0684C106.119 42.0684 106.95 43.0145 106.95 44.2133C106.95 45.412 106.95 44.466 106.95 44.5917H103.631C103.758 45.2863 104.27 45.6647 104.908 45.6647C105.547 45.6647 105.866 45.412 105.994 45.0336H106.889C106.697 45.7905 105.994 46.4216 104.91 46.4216C103.825 46.4216 102.739 45.4755 102.739 44.2133L102.675 44.2767H102.672ZM103.63 43.9618H106.056C105.929 43.2672 105.482 42.8888 104.907 42.8888C104.333 42.8888 103.821 43.2672 103.694 43.9618H103.63Z" fill="white"/>
<path d="M108.354 42.1954V40.8709H109.248V42.1954H110.717V43.0157H109.248V44.8456C109.248 45.4767 109.504 45.6025 110.078 45.6025C110.653 45.6025 110.588 45.6025 110.781 45.4767V46.2971C110.59 46.3605 110.207 46.4228 109.887 46.4228C108.929 46.4228 108.355 46.0444 108.355 44.9713V42.9522H107.589V42.1319H108.419L108.355 42.1954H108.354Z" fill="white"/>
<path d="M112.249 40.2385C112.567 40.2385 112.823 40.4912 112.823 40.8062C112.823 41.1211 112.567 41.3738 112.249 41.3738C111.93 41.3738 111.674 41.1211 111.674 40.8062C111.674 40.4912 111.93 40.2385 112.249 40.2385ZM112.759 46.4216H111.801V42.1942H112.759V46.4216Z" fill="white"/>
</svg>
