<svg width="180" height="56" viewBox="0 0 180 56" fill="none" xmlns="http://www.w3.org/2000/svg">
<path d="M108.241 10.1143C111.545 10.1164 115.168 11.5736 117.924 14.0127C120.672 16.5404 122.193 19.9146 122.208 23.5156C122.225 27.1537 120.703 30.5756 117.924 33.1445C115.22 35.6579 111.811 37.04 108.325 37.04C105.137 37.04 102.109 35.9258 99.5724 33.8164C98.5377 32.9244 97.5552 32.0322 96.8155 31.3564L96.6896 31.2393L98.0421 29.9824L98.1564 30.0879C98.8179 30.673 99.7259 31.5056 100.781 32.4922L100.785 32.4961L100.79 32.5C103.02 34.3211 105.62 35.2852 108.307 35.2852C111.309 35.285 114.285 34.0527 116.685 31.8135C119.108 29.5681 120.433 26.6182 120.418 23.5098C120.403 20.4526 119.077 17.5539 116.683 15.3516C114.238 13.1081 111.402 11.9229 108.484 11.9229C108.414 11.9229 108.342 11.9237 108.273 11.9258C105.162 11.9691 102.048 13.3591 99.2667 15.9443L81.3341 32.5098C78.1943 35.427 74.656 36.9991 71.1075 37.0547H70.9034C67.494 37.0547 64.2111 35.6969 61.4064 33.1279C58.6586 30.6167 57.1369 27.2566 57.1222 23.6699C57.1075 20.0297 58.6291 16.61 61.4064 14.0391C64.1352 11.5175 67.5552 10.1289 71.0362 10.1289C74.2097 10.1289 77.2315 11.2398 79.7706 13.335L80.9171 14.373L82.0607 15.4111L82.7716 16.0625L81.4357 17.3047L81.3214 17.1992C80.9821 16.8964 80.6555 16.6018 80.3331 16.3154C79.72 15.7655 79.1282 15.2358 78.5235 14.7002C76.3194 12.9017 73.6071 11.9131 70.8888 11.9131C67.9177 11.9131 65.071 13.1039 62.6583 15.3555C60.235 17.601 58.9072 20.5495 58.922 23.6582C58.9368 26.7153 60.2646 29.6142 62.6583 31.8164C65.1279 34.0678 67.9643 35.2588 70.8595 35.2588C70.9288 35.2588 70.9982 35.2589 71.0655 35.2568C74.1567 35.2136 77.271 33.8119 80.0714 31.208L98.006 14.6426C101.015 11.845 104.429 10.2836 107.876 10.127L108.241 10.1143ZM76.2765 23.3203C76.2764 24.7664 75.7602 26.1756 74.673 27.1582C74.494 27.3187 74.3064 27.4688 74.1085 27.6006C73.0886 28.2907 72.1421 28.5918 71.1222 28.5918C69.5441 28.5917 68.2782 27.9322 67.3995 27.0918C66.4408 26.1731 65.9054 24.8981 65.9054 23.5859V18.4502L67.922 18.4414V23.5859C67.9579 25.0238 69.0579 26.6143 71.1398 26.5938C72.9728 26.575 74.2559 25.071 74.256 23.4951V18.4414H76.2765V23.3203ZM109.434 18.4805C111.162 18.4805 111.665 18.8599 112.171 19.1689C112.462 19.3463 113.294 20.4239 113.294 21.3652C113.292 22.6526 112.775 23.0151 112.457 23.5342C112.761 23.7896 113.294 24.3608 113.294 25.7617C113.294 27.1706 111.821 28.5877 109.95 28.5879H102.929V18.4805H109.434ZM105.002 26.5996H109.594V26.5977C110.763 26.5977 111.279 26.4226 111.279 25.5615C111.279 24.8363 110.744 24.5068 109.463 24.5068H105.002V26.5996ZM105.002 20.4424V22.5518L109.908 22.5479C110.671 22.4984 111.281 22.3079 111.281 21.4531C111.281 20.825 110.915 20.4258 109.769 20.4258L105.002 20.4424Z" fill="white"/>
<g clip-path="url(#clip0_1119_783)">
<path d="M121.544 43.7803C122.286 43.7803 122.741 43.9723 123.179 44.3154L122.705 44.8389C122.375 44.5804 122.054 44.416 121.512 44.416C120.728 44.416 120.133 45.0523 120.132 45.8193C120.132 46.631 120.71 47.2266 121.58 47.2266C121.98 47.2265 122.345 47.1075 122.606 46.9277V46.1914H121.518V45.5879H123.33V47.2432C122.909 47.5762 122.308 47.8564 121.553 47.8564C120.224 47.8564 119.35 46.9782 119.35 45.8193C119.35 44.7151 120.26 43.7803 121.544 43.7803ZM56.7476 46.0879C56.7476 46.8208 57.1555 47.2148 57.8247 47.2148C58.4874 47.2148 58.895 46.8431 58.895 46.1162V43.8467H59.6431V46.082C59.6431 47.259 58.9257 47.8504 57.812 47.8506C56.7068 47.8526 56.0005 47.261 56.0005 46.1162V43.8467H56.7476V46.0879ZM64.2505 46.5732V43.8467H64.9878V47.79H64.3618L62.0142 44.9863V47.79H61.2778V43.8467H61.9712L64.2505 46.5732ZM71.8501 47.79H71.1021V43.8467H71.8501V47.79ZM75.687 45.7109L76.9819 43.8467H77.7769V47.79H77.0298V44.9639L75.687 46.8213H75.6626L74.3306 44.9736V47.79H73.5942V43.8467H74.3921L75.687 45.7109ZM80.271 47.79H79.5229V43.8467H80.271V47.79ZM85.1665 44.4893H83.8179V47.79H83.063V44.4893H81.7144V43.8467H85.1665V44.4893ZM89.7202 44.4668H87.312V45.4922H89.4458V46.1123H87.312V47.1699H89.7515V47.79H86.564V43.8467H89.7202V44.4668ZM100.952 43.8467C101.438 43.8467 101.821 43.9703 102.063 44.1963C102.253 44.3719 102.348 44.5859 102.348 44.8604C102.348 45.3327 102.057 45.5878 101.741 45.7393C102.24 45.8967 102.586 46.161 102.586 46.708C102.586 47.4127 101.96 47.79 101.012 47.79H99.0415V43.8467H100.952ZM104.83 47.79H104.082V43.8467H104.83V47.79ZM107.323 45.8301L109.348 43.8467H110.266L108.496 45.543L110.344 47.79H109.438L107.984 46.0156L107.321 46.6455V47.7881H106.574V43.8467H107.323V45.8301ZM112.38 47.79H111.632V43.8467H112.38V47.79ZM117.1 46.5732V43.8467H117.834V47.79H117.208L114.861 44.9863V47.79H114.126V43.8467H114.82L117.1 46.5732ZM67.436 47.1582H69.6743V47.7881H66.688V43.8467H67.436V47.1582ZM92.8335 43.8467C94.1718 43.8467 95.096 44.697 95.0962 45.8174C95.0962 46.9278 94.1719 47.7881 92.8335 47.7881H91.2466V43.8467H92.8335ZM99.7759 47.1787H101.017V47.1768C101.527 47.1767 101.838 46.9904 101.838 46.625C101.838 46.2921 101.553 46.0967 100.962 46.0967H99.7759V47.1787ZM91.9946 47.1582H92.8335C93.7273 47.1582 94.311 46.6007 94.311 45.8174C94.3109 45.0462 93.7271 44.4775 92.8335 44.4775H91.9946V47.1582ZM99.7759 45.5088H100.798C101.278 45.5088 101.601 45.3352 101.601 44.9619C101.601 44.651 101.333 44.4609 100.853 44.4609H99.7759V45.5088Z" fill="white"/>
</g>
<defs>
<clipPath id="clip0_1119_783">
<rect width="67.33" height="4.45195" fill="white" transform="translate(56 43.6152)"/>
</clipPath>
</defs>
</svg>
